<?xml version="1.0" encoding="utf-8"?>
<!-- Generator: Adobe Illustrator 22.0.1, SVG Export Plug-In . SVG Version: 6.00 Build 0)  -->
<svg version="1.1" id="Layer_1" xmlns="http://www.w3.org/2000/svg" xmlns:xlink="http://www.w3.org/1999/xlink" x="0px" y="0px"
	 viewBox="0 0 1056 1056" style="enable-background:new 0 0 1056 1056;" xml:space="preserve">
<style type="text/css">
	.st0{fill:#EDBFA7;}
	.st1{fill:#DDA991;}
	.st2{fill:#FFFFFF;}
	.st3{fill:#2C2C2C;}
	.st4{fill:none;stroke:#DDA991;stroke-width:3;stroke-linecap:round;stroke-linejoin:round;stroke-miterlimit:10;}
	.st5{fill:#D3D3D3;}
	.st6{fill:#0C0503;}
	.st7{fill:#232323;}
	.st8{fill:#161616;}
	.st9{fill:#136293;}
	.st10{fill:#1982C4;}
	.st11{fill:#4D4D4D;}
	.st12{fill:#FF595E;}
	.st13{fill:#FFD15C;}
	.st14{fill:#808080;}
	.st15{fill:#666666;}
	.st16{fill:#CCCCCC;}
	.st17{fill:#999999;}
	.st18{clip-path:url(#SVGID_2_);fill:#808080;}
	.st19{fill:#E6E6E6;}
	.st20{fill:#B3B3B3;}
	.st21{clip-path:url(#SVGID_4_);fill:#666666;}
	.st22{clip-path:url(#SVGID_4_);fill:#999999;}
	.st23{fill:#E5E5E5;}
</style>
<g>
	<g>
		<path class="st0" d="M567.2,383c0,0,10.6-12.1,16.7-6.6c6.2,5.4,1.3,19.6-2.9,24.8c-4.1,5.1-16.2,17.6-19.7,17.2
			C559.4,418.1,567.2,383,567.2,383z"/>
		<path class="st1" d="M584.8,394.3c4.5-12.2,1.1-17.5-1.8-18.6c-0.7-0.3-5-3-12.1,3.7c-2,1.9-3,2.5-3.7,3.5
			c-2.9,4.6-3.5,16-3.8,18.8c8.8-14.4,21.9-26,22-17.3C585.4,386.5,584.8,394.3,584.8,394.3z"/>
	</g>
	<path class="st1" d="M370.8,745c0,0,25.4-265.8,97.3-270.4c39.9-2.5,31.2-22.6,31.2-22.6l47.4-2.9c0,0-7.6,25.5,27.3,37.4
		c40.8,13.8,19.5,263.6,19.5,263.6S445.9,803.9,370.8,745z"/>
	<path class="st0" d="M464.6,347.3c0,0-2.7,64.6,14.5,88.5c10.7,14.8,30.7,21.7,41.7,22.1c18.2,0.6,38.3-6.9,45.7-32
		c8.3-28.4,7.7-76.5,7.3-77.7C573.3,346.9,536.2,361.5,464.6,347.3z"/>
	<g>
		<g>
			<circle class="st2" cx="500.8" cy="391.5" r="10.1"/>
			<path class="st3" d="M499.3,381.5c3.9-0.6,7.9,1.1,10.1,4.6c3,4.7,1.6,11-3.1,14c-3.5,2.2-7.8,2-11-0.1L499.3,381.5z"/>
		</g>
		<polygon class="st2" points="500.2,391.7 495.7,386.9 493.9,393.2 		"/>
	</g>
	<g>
		<g>
			<circle class="st2" cx="551.6" cy="391.5" r="10.1"/>
			<path class="st3" d="M550.1,381.5c3.9-0.6,7.9,1.1,10.1,4.6c3,4.7,1.6,11-3.1,14c-3.5,2.2-7.8,2-11-0.1L550.1,381.5z"/>
		</g>
		<polygon class="st2" points="551,391.7 546.5,386.9 544.7,393.2 		"/>
	</g>
	<path class="st0" d="M553.3,476.8c0,0,31.7,11,38,23.3c6,11.6,12.8,52.4,33.1,62l35.6-54.2c0,0,3.4-28.8,16.4-35.6s19.8-2.8,22,0
		c2.3,2.8,10.2,15.3,8.5,25.4c-1.7,10.2-14.7,20.9-22,23.7c-7.3,2.8-16.4-4.5-21.5,15.8c-5.1,20.3-19.9,60.7-33.2,62.9
		c-10.3,1.7-49.8-42.4-49.8-42.4L550,517.1L553.3,476.8z"/>
	<path class="st1" d="M516.8,415.2c-1.2-2.3,7.3-27,11.6-27.3c4.4-0.2,14.5,24.1,14.3,25.7c-0.3,3.2-2.9,3.9-4.6,4.5
		c-1.3,0.4-1.6,2.8-4.9,3.1c-2.7,0.3-4.2-1.6-6.4-2.6C524.7,417.6,518.5,418.4,516.8,415.2z"/>
	<g>
		<path class="st0" d="M471.5,385.2c0,0-10.3-12.2-16.6-6.9s-1.6,19.6,2.4,24.8c4,5.2,15.8,17.9,19.4,17.5
			C478.7,420.5,471.5,385.2,471.5,385.2z"/>
		<path class="st1" d="M453.8,396.2c-4.3-12.3-0.8-17.5,2.1-18.6c0.7-0.3,5-2.9,12,4c2,1.9,3,2.5,3.6,3.6c2.8,4.7,3.2,16.1,3.5,18.9
			c-8.6-14.6-21.4-26.3-21.7-17.7C453.3,388.4,453.8,396.2,453.8,396.2z"/>
	</g>
	<path class="st4" d="M538.8,433.9c-14.6,7.6-37.7,0.9-39.4-16.3"/>
	<path class="st3" d="M475,396.7c0,0-17.4-18.9-15.9-33.4c1.5-14.4,1.7-19.7,2.9-18.6s14,5.8,15.1,7.3
		C488.7,368.4,475,396.7,475,396.7z"/>
	<path class="st3" d="M569.1,346.1c0,0,2.6,38.4,1,41.5s7.6-6,9-12.9c2.3-11.1,3.3-39.2-2.2-37.2
		C573.7,338.7,569.1,346.1,569.1,346.1z"/>
	<path class="st3" d="M460.1,353.5c0,0,49.9,17.4,86.6,7.7c20.2-5.3,35.6-12.4,36.6-33.4c0.5-10.2-14.8-29.6-16.4-33.5
		c-6.3,17.5-49.5,3.8-73.2,15.7c-25.8,12.9-29.2,17-33.9,28.1C457.5,343.4,460.1,353.5,460.1,353.5z"/>
	<polygon class="st3" points="538.9,372 538.2,376 569.5,374.9 568.2,372.4 	"/>
	<polygon class="st3" points="515.3,372.9 515.9,376.9 484.6,375.6 486,373.1 	"/>
	<path class="st5" d="M465.4,481.3c0,0,30.3-12.8,32.5-17.6c0,0,17.5,8,26,7.7c8.5-0.3,24.4-6.8,24-7.7s22.2,25.5,22.2,25.5V543
		l-40.8,43.6l-54.1-46.8L465.4,481.3z"/>
	<path class="st6" d="M558.7,544l61.4,53.7c0,0,3.8,2.5,10.2,2.5c11.7,0,33.7-42.6,39.6-75.6c0,0-13-4.6-14.5-10.2l-30.9,47.7
		c0,0-27.1-31.2-37.5-34.2C576.5,525,558.7,544,558.7,544z"/>
	<polygon class="st3" points="511.8,533.9 520.9,485.3 527.9,484.5 537.4,534.1 	"/>
	<path class="st6" d="M484.7,479.3c0,0,8.2,26.5,38.8,25.4c30.6-1.1,37.2-22.5,37.2-22.5s23.4,43.8,25.9,53.7
		c2.5,10-17,115.1-17,115.1l-107.8-85.8v-68.4L484.7,479.3z"/>
	<path class="st6" d="M466.7,556.9c0,0,58.8,39.6,89.5,38.5c30.6-1.1,32.7-8.8,32.7-8.8s7.6,163.2,10.2,173.1
		c-0.8,16.5-95.6,39.7-163.4,32.2c-42.9-22,30-192.5,30-192.5L466.7,556.9z"/>
	<path class="st7" d="M586.9,773.6c18.3-5.5,29.6-14.3,29.6-14.3s3.3-114.1-1.2-167.3l-37-34.7c0,0-6.9,69.5-8.7,93.8
		c-1.8,25.7-13.4,130.7-13.4,130.7S579.9,775.7,586.9,773.6z"/>
	<path class="st8" d="M586.9,773.6c15.1-4.7,17.1-6.9,17.1-6.9s5.4-131.3,0.9-184.5l-26.7-24.9c0,0-6.9,69.5-8.7,93.8
		c-1.8,25.7-13.4,130.7-13.4,130.7S579.9,775.8,586.9,773.6z"/>
	<path class="st7" d="M586.7,536c16.5,5.1,30.5,18,30.5,18s-22.2-77.2-67.4-88.1l2.7,3.2c0,0,12,21.9-5.5,40.8
		c-18,19.5-30.2,24.2-30.2,24.2S566.5,529.8,586.7,536z"/>
	<path class="st7" d="M687.2,528c-5.6-33.6-30.3-178.4-30.3-178.4s-0.5-3.2,0.5-3.4c0.8-0.2,1.7,3,1.7,3s28.6,131.6,38.4,175.1
		C698.7,530,689.9,532.8,687.2,528z"/>
	<g>
		<rect x="576.6" y="530.6" class="st9" width="30.3" height="12.5"/>
		<rect x="606.9" y="530.6" class="st10" width="8.3" height="12.5"/>
		<rect x="485.2" y="530.6" class="st11" width="63.1" height="83.4"/>
		<path class="st12" d="M572.5,553.4h-2.6v-2.7c0-3.3-2.6-5.9-5.9-5.9h-13.4c-4.7,0-8.5-3.8-8.5-8.5v-5.6h2.6v5.6
			c0,3.3,2.6,5.9,5.9,5.9H564c4.7,0,8.5,3.8,8.5,8.5V553.4z M572.5,553.4"/>
		<path class="st13" d="M578.9,553.4h-2.6v-8c0-3.3-2.6-5.9-5.9-5.9h-0.8c-4.7,0-8.5-3.8-8.5-8.5v-5.6h2.6v5.6
			c0,3.3,2.6,5.9,5.9,5.9h0.8c4.7,0,8.5,3.8,8.5,8.5V553.4z M578.9,553.4"/>
		<rect x="600.5" y="543.1" class="st14" width="5" height="22.3"/>
		<rect x="583.1" y="543.1" class="st15" width="17.4" height="22.3"/>
		<path class="st16" d="M591.8,561.1h-73.2c-1.2,0-2.1-1-2.1-2.1c0-1.2,1-2.1,2.1-2.1h73.2c1.2,0,2.1,1,2.1,2.1
			C593.9,560.2,593,561.1,591.8,561.1L591.8,561.1z M591.8,561.1"/>
		<rect x="479.5" y="619.6" class="st14" width="148.7" height="8.7"/>
		<rect x="553.9" y="619.6" class="st17" width="74.4" height="8.7"/>
		<path class="st14" d="M500.4,628.3h-20.8l4.4,15.5H496L500.4,628.3z M500.4,628.3"/>
		<g>
			<defs>
				<rect id="SVGID_1_" x="479.5" y="515.2" width="148.7" height="129"/>
			</defs>
			<clipPath id="SVGID_2_">
				<use xlink:href="#SVGID_1_"  style="overflow:visible;"/>
			</clipPath>
			<path class="st18" d="M563.6,628.3h-20.8l4.4,15.5h12.1L563.6,628.3z M563.6,628.3"/>
			<path class="st18" d="M628.3,628.3h-20.8l4.4,15.5h12.1L628.3,628.3z M628.3,628.3"/>
		</g>
		<rect x="499.3" y="605" class="st19" width="109.2" height="9"/>
		<rect x="499.3" y="605" class="st20" width="51.4" height="9"/>
		<path class="st17" d="M553.9,628.3v15.5h5.4l4.4-15.5H553.9z M553.9,628.3"/>
		<g>
			<defs>
				<rect id="SVGID_3_" x="479.5" y="515.2" width="148.7" height="129"/>
			</defs>
			<clipPath id="SVGID_4_">
				<use xlink:href="#SVGID_3_"  style="overflow:visible;"/>
			</clipPath>
			<path class="st21" d="M490.7,628.3v15.5h5.4l4.4-15.5H490.7z M490.7,628.3"/>
			<path class="st22" d="M618.6,628.3v15.5h5.4l4.4-15.5H618.6z M618.6,628.3"/>
		</g>
		<rect x="501.6" y="530.6" class="st9" width="30.3" height="12.5"/>
		<rect x="525.4" y="543.1" class="st14" width="5" height="22.3"/>
		<rect x="508" y="543.1" class="st15" width="17.4" height="22.3"/>
		<rect x="531.9" y="530.6" class="st10" width="8.3" height="12.5"/>
		<rect x="571.7" y="553.4" class="st17" width="15.3" height="13.8"/>
		<rect x="565.5" y="553.4" class="st14" width="7.6" height="13.8"/>
		<path class="st16" d="M568.7,561.1h-4.6c-1.2,0-2.1-1-2.1-2.1c0-1.2,1-2.1,2.1-2.1h4.6c1.2,0,2.1,1,2.1,2.1
			C570.9,560.2,569.9,561.1,568.7,561.1L568.7,561.1z M568.7,561.1"/>
		<rect x="569.7" y="567.2" class="st10" width="13.3" height="10.8"/>
		<rect x="569.7" y="567.2" class="st9" width="5.6" height="10.8"/>
		<rect x="574.1" y="578" class="st10" width="4.5" height="3.8"/>
		<path class="st12" d="M594.5,605h-81.1l9.8-13.6h61.6L594.5,605z M594.5,605"/>
		<path class="st12" d="M553.9,591.3V605h-40.6l9.8-13.6H553.9z M553.9,591.3"/>
		<path class="st12" d="M570.2,592.6h-16.3V590h16.3c2.5,0,4.6-2.1,4.6-4.6v-3.7h2.6v3.7C577.4,589.4,574.2,592.6,570.2,592.6
			L570.2,592.6z M570.2,592.6"/>
		<path class="st17" d="M553.9,515.4v104.2h74.4V515.4H553.9z M622.6,613.9h-63.1v-83.4h63.1V613.9z M622.6,613.9"/>
		<path class="st14" d="M479.5,515.4v104.2h74.4V515.4H479.5z M548.3,613.9h-63.1v-83.4h63.1V613.9z M548.3,613.9"/>
		<g>
			<defs>
				<rect id="SVGID_5_" x="479.5" y="515.4" width="148.7" height="128.6"/>
			</defs>
			<clipPath id="SVGID_6_">
				<use xlink:href="#SVGID_5_"  style="overflow:visible;"/>
			</clipPath>
		</g>
	</g>
	<polygon class="st3" points="512.3,478.8 523.8,487.5 536.8,477.9 523.8,471.4 	"/>
	<path class="st0" d="M471.9,610.2l60.9-8.1c0,0,22.1-13.5,35.7-10.3c7.2,1.7,4.3,12.1,5.4,17.3c0.7,3.3,1.6,11.8-0.4,13
		c-8.4,4.9-21.5,4.8-28.9,3.9c-9.5-1.1-13-12.3-30.8-3.3c-17.7,9-55.9,23.3-65.7,15.2c-7.6-6.3-0.5-62-0.5-62
		S466.1,589.7,471.9,610.2z"/>
	<path class="st6" d="M438.3,549l-0.4,81.6c0,0,0.6,4.5,4.8,9.3c7.7,8.9,54.3-2.3,83.1-19.4c0,0-5-12.8-1.8-17.6l-56.3,7.8
		c0,0,5.9-40.9,1.3-50.8C464.3,550,438.3,549,438.3,549z"/>
	<path class="st7" d="M496.3,465.5c0,0-14.5,10.6-10.8,22.5c3.4,10.6,26.8,27.4,26.8,27.4s-27.9,0-32.8-0.1c0.2,1.2,0.5,50.7,0,57
		c-3.5,45.7-22.9,179.4-22.4,221c0,0-51.8,0-80.1-18.8c-4-2.7-9.7-12.4-9.7-26.5s3.7-96.8,22.7-157c20.4-65,46.2-108.5,78.1-120.9
		C483.5,464.1,496.3,465.5,496.3,465.5z"/>
	<path class="st23" d="M499.2,461.3c1.1,2.5,24.6,10.2,24.6,10.2l-18.5,15.2C505.3,486.6,489.5,469.2,499.2,461.3z"/>
	<path class="st23" d="M546.6,460.5c-3.7,5.4-22.8,10.9-22.8,10.9l18.1,15.2C541.9,486.6,554.1,476,546.6,460.5z"/>
	<path class="st0" d="M693.3,468.9c0,0-12.9,4.8-18.1,5.7s-4,9.2,22.6,4.3C697.8,478.9,701.5,473.6,693.3,468.9z"/>
	<path class="st0" d="M698.1,478.2c0,0-14.2,5.3-20,6.3s-4.4,10.2,25,4.8C703.1,489.3,707.1,483.4,698.1,478.2z"/>
	<path class="st0" d="M701.9,488.7c0,0-14.2,5.3-20,6.3s-4.4,10.2,25,4.8C706.9,499.8,711,494,701.9,488.7z"/>
	<path class="st0" d="M672.4,492c0,0,14.9,3,20.3,5.2c5.4,2.2,9.1-6.4-18.7-17.2C674,480,667.5,482.8,672.4,492z"/>
	<path class="st0" d="M554.9,601.6c0,0,7.3-12.4,10.9-16.6c3.6-4.2-2.9-10.1-21.2,11.4C544.6,596.4,545.2,603.1,554.9,601.6z"/>
	<path class="st0" d="M563.1,593.2c0,0,15.9-2.2,17.5-3.1c1.6-1,6-7,6.8-6.7c0.8,0.3,1.2,9.5-2.5,11.2c-3.7,1.7-20,6.7-21.1,6.2
		C562.7,600.2,563.1,593.2,563.1,593.2z"/>
	<path class="st0" d="M563.1,601.5c0,0,15.9-2.2,17.5-3.1c1.6-1,6-7,6.8-6.7c0.8,0.3,1.2,9.5-2.5,11.2c-3.7,1.7-20,6.7-21.1,6.2
		C562.7,608.5,563.1,601.5,563.1,601.5z"/>
	<path class="st0" d="M563.9,610.3c0,0,15.9-2.2,17.5-3.1c1.6-1,6-7,6.8-6.7c0.8,0.3,1.2,9.5-2.5,11.2c-3.7,1.7-20,6.7-21.1,6.2
		C563.5,617.3,563.9,610.3,563.9,610.3z"/>
	<path class="st0" d="M564,618.8c0,0,12.6-1.7,13.9-2.5s4.8-5.6,5.4-5.3c0.7,0.2,1,7.6-2,8.9s-15.9,5.3-16.8,4.9
		C563.7,624.4,564,618.8,564,618.8z"/>
</g>
</svg>
