<?xml version="1.0" encoding="utf-8"?>
<!-- Generator: Adobe Illustrator 22.0.1, SVG Export Plug-In . SVG Version: 6.00 Build 0)  -->
<svg version="1.1" id="Layer_1" xmlns="http://www.w3.org/2000/svg" xmlns:xlink="http://www.w3.org/1999/xlink" x="0px" y="0px"
	 viewBox="0 0 1056 1056" style="enable-background:new 0 0 1056 1056;" xml:space="preserve">
<style type="text/css">
	.st0{fill:#EDBFA7;}
	.st1{fill:#EFC75E;}
	.st2{clip-path:url(#SVGID_2_);fill:#DEB957;}
	.st3{clip-path:url(#SVGID_2_);fill:#FF595E;}
	.st4{clip-path:url(#SVGID_2_);fill:#F4F0D3;}
	.st5{fill:#E8E4C8;}
	.st6{fill:#8BA0AB;}
	.st7{fill:#FF595E;}
	.st8{clip-path:url(#SVGID_4_);fill:#324D5B;}
	.st9{clip-path:url(#SVGID_4_);fill:#FF595E;}
	.st10{fill:#DDA991;}
	.st11{fill:#1982C4;}
	.st12{fill:#FFFFFF;}
	.st13{fill:#2C2C2C;}
	.st14{fill:none;stroke:#DDA991;stroke-width:3;stroke-linecap:round;stroke-linejoin:round;stroke-miterlimit:10;}
</style>
<path class="st0" d="M409.6,491.9c-1.2,2.6-5,6.5-5,6.5s-4.4,5.5-5.4,6.4c-1,0.8-6.6,7.8-7.1,10.9s-0.5,11.2-0.5,11.2l-25.4,2.8
	l-0.8-12.1c0,0-5.9-14.9-6.5-20.9c-0.6-6,0.6-14.9,0.6-14.9l-1.7-23.2c0,0-1-6.5,2.6-6.6c1.7-0.1,3,2.1,3.2,3.3s1.6,18.8,3.2,21
	c1.7-2.9-4.3-32.2-4.3-32.2s0.3-3.3,3.2-3.4c2.9-0.1,3.7,2.8,3.7,2.8l5.2,26.2c0,0,0.6,1.8,1.5,1.6c0.9-0.2,1.8-3,1.8-3l6.5-28.2
	c0,0,1.2-3.3,3.5-3.2s2.3,4,2.2,5.2c-0.7,7.3-6,29.6-4.8,30.7c1.7,1.5,6.5-27.2,6.5-27.2s0.1-3.9,2.8-4.1c2.8-0.1,3.1,3.4,3.1,3.4
	s-2,21.7-2.1,30.1c-0.2,8.4,0.8,12.5,1.6,14.6c0.8,2.1,4.2,0.4,4.2,0.4s3.2-5.6,5.9-7s5-2.5,5.6-1.3
	C414.8,485.2,410.8,489.3,409.6,491.9z"/>
<g>
	<path class="st1" d="M606.6,511.3c2.1,2.1,2.1,5.5,0,7.6c-2.1,2.1-8.2,4.8-10.3,2.7c-2.1-2.1,0.6-8.2,2.7-10.3
		C601.1,509.2,604.4,509.2,606.6,511.3L606.6,511.3z M606.6,511.3"/>
	<g>
		<defs>
			<rect id="SVGID_1_" x="591.8" y="477.7" width="47.6" height="47.7"/>
		</defs>
		<clipPath id="SVGID_2_">
			<use xlink:href="#SVGID_1_"  style="overflow:visible;"/>
		</clipPath>
		<path class="st2" d="M600.3,510.3v0.2c0,3.9,3.2,7,7,7h0.1c1-2,0.7-4.5-1-6.2C604.9,509.6,602.4,509.3,600.3,510.3L600.3,510.3z
			 M600.3,510.3"/>
		<path class="st3" d="M617.5,499.6c6.4,6.4,7.6,15.4,1.6,21.4l-2.9,2.9c-6,6-1.9-8.4-8.2-14.8c-6.4-6.4-20.8-2.2-14.8-8.2l2.9-2.9
			C602.1,492,611.1,493.2,617.5,499.6L617.5,499.6z M617.5,499.6"/>
		<path class="st4" d="M638.5,478.6c1.9,1.9,1.1,14.2-10.8,26.1c-7.7,7.7-12.6,10.4-12.6,10.4c-5.2,3.5-7.7,1.1-10.9-2.2
			c-3.3-3.3-5.7-5.8-2.2-10.9c0,0,2.7-4.9,10.4-12.6C624.4,477.5,636.6,476.6,638.5,478.6L638.5,478.6z M638.5,478.6"/>
	</g>
	<path class="st5" d="M617.2,513.4c-5.4,3.6-8,1.2-11.4-2.2c-3.4-3.4-5.9-6-2.2-11.4l0.6-0.9c-1.4,2-2.1,3.1-2.1,3.1
		c-3.5,5.2-1.1,7.7,2.2,10.9c3.3,3.3,5.8,5.6,10.9,2.2c0,0,2.3-1.3,6.3-4.6C618.7,512.5,617.2,513.4,617.2,513.4L617.2,513.4z
		 M617.2,513.4"/>
	<path class="st6" d="M626.1,491c1.8,1.8,1.8,4.8,0,6.6c-1.8,1.8-4.8,1.8-6.6,0c-1.8-1.8-1.8-4.8,0-6.6
		C621.3,489.2,624.3,489.2,626.1,491L626.1,491z M626.1,491"/>
	<path class="st7" d="M615.3,502.5c0.9,0.9-0.9,4.2-5.4,8.8c-4.5,4.5-7.3,5.8-8.2,4.8c-0.9-0.9,0.3-3.7,4.8-8.2
		C611.1,503.3,614.4,501.6,615.3,502.5L615.3,502.5z M615.3,502.5"/>
	<g>
		<defs>
			<rect id="SVGID_3_" x="591.8" y="477.7" width="47.6" height="47.7"/>
		</defs>
		<clipPath id="SVGID_4_">
			<use xlink:href="#SVGID_3_"  style="overflow:visible;"/>
		</clipPath>
		<path class="st8" d="M622.8,490.8c0.9,0,1.8,0.4,2.5,1c0.7,0.7,1,1.6,1,2.5c0,0.9-0.4,1.8-1,2.5c-0.7,0.7-1.6,1-2.5,1
			c-0.9,0-1.8-0.4-2.5-1c-0.7-0.7-1-1.6-1-2.5c0-0.9,0.4-1.8,1-2.5C621,491.1,621.9,490.8,622.8,490.8 M622.8,489.6
			c-1.2,0-2.4,0.4-3.3,1.4c-1.8,1.8-1.8,4.8,0,6.6c0.9,0.9,2.1,1.4,3.3,1.4s2.4-0.4,3.3-1.4c1.8-1.8,1.8-4.8,0-6.6
			C625.2,490.1,624,489.6,622.8,489.6L622.8,489.6z M622.8,489.6"/>
		<path class="st9" d="M627.1,479.5c0.3,2.5,1.7,5.1,3.9,7.3c1.9,1.9,4.2,3.2,6.4,3.7c2.5-6.1,2.3-10.8,1.2-11.9
			C637.4,477.5,633,477.3,627.1,479.5L627.1,479.5z M627.1,479.5"/>
	</g>
</g>
<path class="st10" d="M400.3,603.7c0,0,12.6-51.3,43.3-52.6c73.8-3.2,57.3-48.5,57.3-48.5l52-2.5c0,0-19.9,49.9,59.4,53.8
	c27.3,1.3,37.9,55.4,37.9,55.4S513.2,650.7,400.3,603.7z"/>
<path class="st11" d="M400.3,603.7c0,0,6.1-49.5,39.4-56.1c27.7-5.5,43.5-9.6,51.7-15.5c9.5-6.7,8.7-10.3,11-15.2
	c12.3,6.8,35,8.8,48-0.9c0.9,4.8,1.9,10.2,8.7,15.8c8.4,6.9,24.1,12.6,55.3,17.9c37.9,6.4,40,49.7,40.4,69.9
	c0.7,33-0.8,85.1,0.4,133.8c-36.5,25.6-159.8,51.4-239.3,19.2C418.5,726.7,400.3,631.4,400.3,603.7z"/>
<path class="st0" d="M453.8,380c0,0-3.6,77.7,17,106.6c12.8,17.9,36.9,26.3,50.1,26.8c21.9,0.9,46.1-8.1,55.1-38.3
	c10.1-34.1,9.6-92,9.1-93.5C584.6,380.1,539.9,397.5,453.8,380z"/>
<g>
	<g>
		<circle class="st12" cx="554.1" cy="433.5" r="12.2"/>
		<path class="st13" d="M562.4,424.6c3.4,3.2,4.9,8.2,3.2,13c-2.2,6.4-9.2,9.7-15.5,7.5c-4.7-1.6-7.7-5.8-8.1-10.5L562.4,424.6z"/>
	</g>
	<polygon class="st12" points="553.4,433 554.5,425.3 547.3,428.2 	"/>
</g>
<g>
	<g>
		<path class="st0" d="M584.1,423.4c0,0,10.5-9.1,17-15.8c7.8,2.9,6.4,30.5-3.6,42.4c-5.1,6.1-16.3,16.5-20.6,15.9
			C574.5,465.6,584.1,423.4,584.1,423.4z"/>
	</g>
	<path class="st10" d="M578.1,452.4c0,0,5.9-27.8,24.1-36.7c2.5-1.2,3.5,12.8,3,15.2c-0.5,2.4,4.7-16.7-4.2-23.2l-17,15.8
		L578.1,452.4z"/>
</g>
<g>
	<g>
		<path class="st0" d="M456.3,425.2c0,0-10.5-9.1-17-15.8c-7.8,2.9-6.4,30.5,3.6,42.4c5.1,6.1,16.3,16.5,20.6,15.9
			C465.9,467.4,456.3,425.2,456.3,425.2z"/>
	</g>
	<path class="st10" d="M462.3,454.1c0,0-5.9-27.8-24.1-36.7c-2.5-1.2-3.5,12.8-3,15.2c0.5,2.4-4.7-16.7,4.2-23.2l17,15.8
		L462.3,454.1z"/>
</g>
<g>
	<g>
		<circle class="st12" cx="492.6" cy="433.5" r="12.2"/>
		<path class="st13" d="M500.9,424.6c3.4,3.2,4.9,8.2,3.2,13c-2.2,6.4-9.2,9.7-15.5,7.5c-4.7-1.6-7.7-5.8-8.1-10.5L500.9,424.6z"/>
	</g>
	<polygon class="st12" points="492,433 493.1,425.3 485.8,428.2 	"/>
</g>
<path class="st10" d="M511.6,462c-1.5-2.8,8.9-32.5,14.1-32.7c5.2-0.2,17.3,29.1,17.1,31c-0.4,3.8-6.3,4.7-8.3,5.4
	c-1.5,0.5-2,3.3-5.9,3.7c-3.2,0.3-5-1.9-7.7-3.2C518.3,464.9,513.7,465.8,511.6,462z"/>
<path class="st14" d="M507.4,480.9c16.7,10.6,45.1,4.8,48.8-15.7"/>
<polygon class="st13" points="538.4,410.1 537.6,414.9 575.2,413.7 573.6,410.7 "/>
<polygon class="st13" points="510.8,410.8 511.4,415.7 473.8,413.9 475.5,410.9 "/>
<g>
	<path class="st12" d="M585.4,574.4c0.4,0.7,0.9,1.3,1.3,1.9c2.5,4,4.5,8.2,5.9,12.7c0.8,2.6,1.5,5.3,2.1,8c0.6,2.6,1,5.2,1.5,7.8
		c0.2,1,0.4,2,0.6,3.1c0,0,0,0.1,0,0.1c0,0,0,0,0,0c0,0,0-0.1-0.1-0.1c-0.6-1.6-1.2-3.2-2-4.7c-0.6-1.2-1.3-2.4-2.1-3.4
		c-0.5-0.6-1-1.1-1.6-1.5c-1.2-0.8-2.5-0.9-3.8-0.2c-0.9,0.5-1.6,1-2.4,1.6c-1.8,1.4-3.4,3-5,4.6c-2,2.1-3.9,4.4-5.8,6.7
		c0,0,0,0.1-0.1,0.1c0-0.2,0-0.4,0-0.6c0.1-0.9,0.2-1.8,0.2-2.7c0.1-1.2,0.3-2.4,0.4-3.6c0.2-1.7,0.5-3.4,0.8-5
		c0.5-2.6,1.1-5.1,1.9-7.6c1.9-6,4.5-11.6,8-16.8C585.4,574.5,585.4,574.5,585.4,574.4z M581.6,589.3c0.1,0,0.1,0.1,0.1,0.1
		c0.7,0.4,1.5,0.8,2.2,1.1c0.1,0,0.1,0,0.1,0.1c-0.1,0.8-0.2,1.5-0.3,2.3c0,0.2,0,0.4-0.1,0.6c0,0,0,0,0,0c0.6-0.9,1.1-1.9,1.7-2.9
		c0.5,0.9,1.1,1.8,1.6,2.8c0,0,0,0,0-0.1c-0.1-0.9-0.2-1.8-0.3-2.6c0-0.1,0-0.1,0.1-0.2c0.7-0.4,1.5-0.8,2.2-1.2c0,0,0.1,0,0.1-0.1
		c-0.1,0-0.1,0-0.1-0.1c-0.8-0.3-1.6-0.6-2.4-0.8c-0.1,0-0.1,0-0.1-0.1c-0.1-1.2-0.3-2.4-0.4-3.6c-0.2-1.7-0.4-3.4-0.6-5
		c0-0.1,0-0.2,0-0.3c-0.1,0.3-0.1,0.6-0.1,0.9c-0.2,1.3-0.3,2.5-0.5,3.8c-0.2,1.4-0.4,2.8-0.5,4.3c0,0.1,0,0.1-0.1,0.2
		c-0.7,0.2-1.3,0.4-2,0.7C582,589.2,581.9,589.2,581.6,589.3z"/>
</g>
<g>
	<path class="st11" d="M381.4,701.7c39,30.6,34.3,7,34.3,7l-23.2-186.6c0,0-10,4-27.8-0.5C360.3,533,336.8,666.7,381.4,701.7z"/>
</g>
<g>
	<path class="st11" d="M456.9,578.2c-19.1-34.2-22.8-15.6-22.8-15.6l-39.9,143c0,0,8.5,0.1,20.1,8.8
		C421,707.6,478.7,617.3,456.9,578.2z"/>
</g>
<path class="st13" d="M457.4,431.7l3.6-41.8c0,0,37.4,11.6,64.9,11.5c27.4-0.2,55.7-12.4,55.7-12.4s0.2,32.5,0,39.8
	c18.5-10.2,11.2-46.9,3.7-59.6c-5-8.5-19.6-33.7-65.9-33.9c-46.3-0.2-58.7,20.8-67,33.8C447.7,376.5,432.9,406.9,457.4,431.7z"/>
</svg>
