<?xml version="1.0" encoding="utf-8"?>
<!-- Generator: Adobe Illustrator 22.0.1, SVG Export Plug-In . SVG Version: 6.00 Build 0)  -->
<svg version="1.1" id="Layer_1" xmlns="http://www.w3.org/2000/svg" xmlns:xlink="http://www.w3.org/1999/xlink" x="0px" y="0px"
	 viewBox="0 0 900 900" style="enable-background:new 0 0 900 900;" xml:space="preserve">
<style type="text/css">
	.st0{fill:#212121;}
	.st1{fill:#515151;}
	.st2{fill:#606060;}
	.st3{fill:#111111;}
	.st4{fill:#545354;}
	.st5{fill:#5DA96A;}
	.st6{clip-path:url(#SVGID_2_);fill:#5DA96A;}
	.st7{fill:#359345;}
	.st8{fill:#7C7C7C;}
	.st9{fill:#939393;}
	.st10{clip-path:url(#SVGID_4_);fill:#7C7C7C;}
	.st11{clip-path:url(#SVGID_4_);fill:#686768;}
	.st12{fill:#686768;}
	.st13{fill:#494948;}
	.st14{fill:#2B2B2B;}
	.st15{fill:#EDBFA7;}
	.st16{fill:#3F3F3F;}
	.st17{fill:#2C2C2C;}
	.st18{fill:#DDA991;}
	.st19{fill:#FFFFFF;}
	.st20{fill:none;stroke:#DDA991;stroke-width:3;stroke-linecap:round;stroke-linejoin:round;stroke-miterlimit:10;}
	.st21{fill:#8E8E8E;}
</style>
<g>
	<path class="st0" d="M396.6,473.4l83.1-24.5l-13.6-97c0,0-4.1-10.5-9.4-11s-15.1-20.2-13-24.5c5.1-10.4,5.5-6.2,14.5-9.2
		c9-3,24.7,23.5,21.7,27c-6.8,7.9-5,7.7-4.4,12.7c0.7,5,28.2,97.2,23.7,104.1s-97,34.9-97,34.9S391.5,483.6,396.6,473.4z"/>
	<polygon class="st1" points="396.6,473.4 479.6,448.9 474.8,414.5 492,409.3 501.3,450.2 499.1,457.4 402.1,485.9 	"/>
	<path class="st1" d="M550.2,468.9c0,0-29.3-16.7-42.3-13.7c-13,3-61.7,68.7-71,94.7c-9.3,26-33.7,42.2-22.7,50.7
		c10.1,7.8,40.3-4,56.3-22s40-64.7,39-98.7c0,0,21.1,10.7,35.3,17L550.2,468.9z"/>
	<path class="st2" d="M433.6,602.2c22.5-5,63-45,65.5-130c0,0,15.5,24.5,25,32s45,32,48.5,34s13,18.4,22.5,19.9s34-37,39-49.9
		c-10.5-6.4-21,6.5-31.5,16s-11.8,8.1-17.2,5.6s-68-75.8-68-75.8s-17.1-28.4-32.2-22.4c-14.2,5.6-36.2,106.6-56.1,114L433.6,602.2z"
		/>
	<path class="st3" d="M535.7,490.2c0,0,23.2,17.4,34.8,21c11.6,3.6,53.5,13.8,57.4,14.5c4,0.6,18.7,12.5,28.1,10.6
		c9.4-2,18.6-46.7,18.6-60.5c-12.1-2.2-17.3,13.6-23.7,26.2c-6.4,12.6-8.1,11.8-14.1,11.4c-6-0.4-90.5-46.5-90.5-46.5L535.7,490.2z"
		/>
	<path class="st0" d="M499.1,472.4c0,0,15.8,24.2,25,32c14.3,12.2,45,32,48.5,34s16.7,19.9,22.5,19.9c9.6-0.1,34-37.7,39-50.6
		c-10.5-6.4-21,7.2-31.5,16.7s-11.8,8.1-17.2,5.6s-68-75.8-68-75.8L499.1,472.4z"/>
	<g>
		<path class="st4" d="M518.6,339.4c1.8-5.6,4.3-9.7,5.5-9.3s0.8,5.2-1,10.8c-1.8,5.6-4.3,9.8-5.5,9.3
			C516.3,349.8,516.8,345,518.6,339.4L518.6,339.4z M518.6,339.4"/>
		<path class="st5" d="M423.3,377.6"/>
		<g>
			<defs>
				
					<rect id="SVGID_1_" x="284.2" y="192.2" transform="matrix(0.8897 -0.4565 0.4565 0.8897 -93.1934 210.9944)" width="211.8" height="212.4"/>
			</defs>
			<clipPath id="SVGID_2_">
				<use xlink:href="#SVGID_1_"  style="overflow:visible;"/>
			</clipPath>
			<path class="st6" d="M254.4,261.6c-2.8-0.9-4.5-4.2-3.6-7l0.7-2.3c0.9-2.8,4.2-4.5,7-3.6l178.2,57.1c2.8,0.9,4.5,4.2,3.6,7
				l-0.9,2.8c-0.9,2.8-4.2,4.5-7,3.6L254.4,261.6z M432.5,319.2"/>
		</g>
		<path class="st7" d="M255.3,258.9c-2.8-0.9-4.9-2.9-4.3-4.7l0.4-1.4c0.6-1.8,3.5-2.2,6.2-1.3l178.2,57.1c2.8,0.9,4.9,2.9,4.3,4.7
			l-0.3,1.7c-0.6,1.8-3.5,2.2-6.2,1.3L255.3,258.9z M433.7,316.3"/>
		<path class="st8" d="M446.3,324.4c-2.8-0.9-4.5-4.2-3.6-7l1.3-4.1c0.9-2.8,4.2-4.5,7-3.6l29,9.3c2.8,0.9,4.5,4.2,3.6,7l-1.3,4.1
			c-0.9,2.8-4.2,4.5-7,3.6L446.3,324.4z M475.3,333.7"/>
		<path class="st8" d="M446.3,324.4c-2.8-0.9-4.5-4.2-3.6-7l1.3-4.1c0.9-2.8,4.2-4.5,7-3.6l29,9.3c2.8,0.9,4.5,4.2,3.6,7l-1.3,4.1
			c-0.9,2.8-4.2,4.5-7,3.6L446.3,324.4z M475.3,333.7"/>
		<path class="st9" d="M479.4,320.8c2.9,1.2,4.5,4.2,3.6,7l0.6-1.8c0.9-2.8-0.8-6.1-3.6-7l-29-9.3c-2.8-0.9-6.1,0.8-7,3.6l-1.6,4.3
			l1-2.5c0.9-2.8,4.2-4.5,7-3.6L479.4,320.8L479.4,320.8z M479.4,320.8"/>
		<path class="st8" d="M492.4,342.5c-2.9-1.2-5.4-1.5-9.7-6.2l4.9-15.2c6.2-1.3,8.7-0.2,11.5,0.6l17.9,5.8c2.8,0.9,4.5,4.2,3.6,7
			l-3.3,10.1c-0.9,2.8-4.2,4.5-7,3.6L492.4,342.5z M510.4,348.3"/>
		<path class="st9" d="M518.4,330.1c2.9,1.2,4.5,4.2,3.6,7l0.6-1.8c0.9-2.8-0.8-6.1-3.6-7l-21.6-7c-3.7-1.3-11.2-0.8-12.1,1.8
			l-1.7,4.8l1-2.5c0.9-2.8,9.4-3.2,12.2-2.3L518.4,330.1L518.4,330.1z M518.4,330.1"/>
		<g>
			<defs>
				
					<rect id="SVGID_3_" x="284.2" y="192.2" transform="matrix(0.8897 -0.4565 0.4565 0.8897 -93.1934 210.9944)" width="211.8" height="212.4"/>
			</defs>
			<clipPath id="SVGID_4_">
				<use xlink:href="#SVGID_3_"  style="overflow:visible;"/>
			</clipPath>
			<path class="st10" d="M512.1,350.9c-0.9-0.3-1.5-1.5-1.2-2.4l6.7-20.7c0.3-0.9,1.5-1.5,2.4-1.2l3.7,1.2c0.9,0.3,1.5,1.5,1.2,2.4
				l-6.7,20.7c-0.3,0.9-1.5,1.5-2.4,1.2L512.1,350.9z M515.8,352.1"/>
			<path class="st11" d="M512.1,350.9l3.7,1.2c0.9,0.3,2.1-0.3,2.4-1.2l6.7-20.7c0.3-0.9-0.3-2.1-1.2-2.4l-3.7-1.2"/>
		</g>
		<path class="st12" d="M480,336.3c-0.5-0.1-0.8-0.8-0.6-1.2l4.7-14.7c0.1-0.5,0.8-0.8,1.2-0.6l2.3,0.7c0.5,0.1,0.8,0.8,0.6,1.2
			l-4.7,14.7c-0.1,0.5-0.8,0.8-1.2,0.6L480,336.3z M482.3,337"/>
		<path class="st4" d="M476.3,335.1c-0.5-0.1-0.8-0.8-0.6-1.2l4.7-14.7c0.1-0.5,0.8-0.8,1.2-0.6l2.3,0.7c0.5,0.1,0.8,0.8,0.6,1.2
			l-4.7,14.7c-0.1,0.5-0.8,0.8-1.2,0.6L476.3,335.1z M478.6,335.8"/>
		<path class="st13" d="M438,324.8c-2.8-0.9-4.5-4.2-3.6-7l3.1-9.7c0.9-2.8,4.2-4.5,7-3.6l4.1,1.3c2.8,0.9,4.5,4.2,3.6,7l-3.1,9.7
			c-1.2,2.9-4.2,4.5-7,3.6L438,324.8z M442.2,326.1"/>
		<path class="st12" d="M433,321.6c-0.9-0.3-1.4-1.2-1.1-2.1l4.7-14.7c0.3-0.9,1.2-1.4,2.1-1.1l0.5,0.1c0.9,0.3,1.4,1.2,1.1,2.1
			l-4.7,14.7c-0.3,0.9-1.2,1.4-2.1,1.1L433,321.6z M433.4,321.8"/>
		<path class="st8" d="M433.1,315.8c-0.3,0.9,0,1.5,1.1,2.1l0.5,0.1c0.9,0.3,1.8-0.2,2.1-1.1l3.4-10.6c0.3-0.9-0.2-1.8-1.1-2.1
			l-0.5-0.1c-0.9-0.3-1.8,0.2-2.1,1.1L433.1,315.8L433.1,315.8z M433.1,315.8"/>
		<path class="st12" d="M442.3,307.6l6.4,2.1c0.5,0.1,0.5,0.1,0.3,0.6c-0.1,0.5-0.1,0.5-0.6,0.3l-6.4-2.1c-0.5-0.1-0.5-0.1-0.3-0.6
			L442.3,307.6z M441.7,307.9"/>
		<path class="st12" d="M440.9,311c-0.2-0.3,0.1-0.5,0.6-0.3l6.4,2.1c0.5,0.1,0.5,0.1,0.3,0.6c-0.1,0.5-0.1,0.5-0.6,0.3l-6.4-2.1
			C440.8,311.5,440.8,311.5,440.9,311L440.9,311z M440.9,311"/>
		<path class="st12" d="M439.9,314.2c-0.2-0.3,0.1-0.5,0.6-0.3l6.4,2.1c0.5,0.1,0.5,0.1,0.3,0.6c-0.1,0.5-0.1,0.5-0.6,0.3l-6.4-2.1
			C439.8,314.7,439.8,314.7,439.9,314.2L439.9,314.2z M439.9,314.2"/>
		<path class="st12" d="M438.9,317.4c-0.2-0.3,0.1-0.5,0.5-0.6l6.4,2.1c0.5,0.1,0.5,0.1,0.3,0.6c-0.1,0.5-0.1,0.5-0.6,0.3l-6.3-1.8
			C438.7,317.9,438.7,317.9,438.9,317.4L438.9,317.4z M438.9,317.4"/>
		<path class="st12" d="M438.3,320l6.4,2.1c0.5,0.1,0.5,0.1,0.3,0.6c-0.1,0.5-0.1,0.5-0.6,0.3L438,321c-0.5-0.1-0.5-0.1-0.3-0.6
			L438.3,320z M437.7,320.4"/>
	</g>
	<path class="st14" d="M402.6,612.8c0,0,17.6,0,29-10.9c7-6.7-29-8.2-29-8.2V612.8z"/>
	<path class="st15" d="M362.5,435c0,0,18.9,26.8,38.9,19.1c19.9-7.7,19-30.5,14.5-44.6c-4.6-14.1-5.5-26.4-14.6-34.2
		c-9.1-7.7-32.8-11.4-38.7-5.5s-16.4,41.9-10.5,51S362.5,435,362.5,435z"/>
	<path class="st16" d="M433.7,542.7c-1.7,1.8-3.7,2.3-6.1,3.4c-8,1.9-17.9-3.6-19.2-7.5c-3-8.6-6.5-56.4-2.7-74.7
		c1.1-5.4-7.1-18-32.1-8c0,0-28.4,41.8-15,93.5c11.7,45.2,54,57.5,76.5,52.5L433.7,542.7z"/>
	<path class="st16" d="M463.4,576.8c-2.9,1.7-28.1-18.5-40.1-30.5c-7.3,1.8-12.4-10.9-12.9-14.1c-1.5-8.9-5.4-44.5-3.5-63.1
		c0.6-6,1.2-10.2-7-9.4c-16,1.6-12.5-8.2-27.2-2.3c0,0-21.3,28.2-19.3,73c0.5,12,7.3,26.2,8.8,30c2.9,7.1,5.6,10,9.5,17.5
		c5.2,18.5,23.6,31.4,31,35L463.4,576.8z"/>
	<path class="st0" d="M379.9,473.5l122.6-68.8c0,0,8.1-6.6,14.4-7.1c6.2-0.5,40,8.6,42.3,12.4s5.5,15.9,6.4,24.1
		c0.6,5.4-2.1,14.6-3.6,8.2s-6.2-24.6-6.2-24.6s-6.1,13-17.3,11.1c-11.2-1.9-24.7-15.5-24.7-15.5s-120.5,65.4-122.5,66
		S381.3,482.4,379.9,473.5z"/>
	<path class="st17" d="M374.9,447.8c-13.6,0.4-45.8-27.5-43-54.5c2.7-27,20-36.7,31-37.3s30.1-1.4,35.1-6.2c5-4.9,9.7-9.3,9.7-9.3
		s0.3,3.6-0.5,6.4c-1.2,4.2-5.3,9.8-3.5,10.2c6.1-1.8,14.8-10.4,18-11.5c3.5,9.8-4.6,17.6-4.6,17.6l6.2-0.9c0,0-9.8,9.3-13.9,11.5
		c-10.3,5.6-12.8,6.6-22.2,9.4c-10.5,3.2-22.3-0.7-22,6.3c0.2,4.7,11.3,17.3,9.3,22.3C344.7,420.7,375.5,437.4,374.9,447.8z"/>
	<g>
		<path class="st15" d="M368.6,411c0,0-9.3-8.1-13.4-3.3c-4.1,4.8,1.1,15.1,4.8,18.6c3.7,3.5,14.2,11.8,16.8,11.1
			C378.3,436.9,368.6,411,368.6,411z"/>
		<path class="st18" d="M356.4,421.4c-4.7-8.8-2.7-13.2-0.6-14.4c0.5-0.3,3.5-2.8,9.6,1.6c1.7,1.2,2.6,1.6,3.2,2.3
			c2.7,3.2,4.3,11.9,4.9,13.9c-8.2-10.1-19.4-17.5-18.6-10.9C355.1,415.5,356.4,421.4,356.4,421.4z"/>
	</g>
	<path class="st18" d="M410.7,400.4c0,0,0.7,11.8,2.9,17.4c0.4,1,2.9,1.8,3.8,1.3l10.7-6.6c1-0.6,1.1-2,0.1-2.7l-15-11.1
		C412,397.8,410.3,398.9,410.7,400.4z"/>
	<g>
		<g>
			<circle class="st19" cx="397.7" cy="403.6" r="7.6"/>
			<path class="st17" d="M394.9,396.5c2.7-1.1,6-0.5,8.2,1.7c3,3,3,7.8,0,10.8c-2.2,2.2-5.4,2.8-8.1,1.7L394.9,396.5z"/>
		</g>
		<polygon class="st19" points="397.2,403.8 393.2,401.1 392.8,406 		"/>
	</g>
	<polygon class="st17" points="404.6,386.7 405.7,389.2 385.1,393.6 385.6,391.8 	"/>
	<path class="st20" d="M394.4,429.5c0,0,7.8,5.3,18.6,0.9"/>
	<ellipse class="st9" cx="485.1" cy="706.6" rx="189.6" ry="7.5"/>
	<g>
		<polygon class="st0" points="564.1,364.5 572.7,441.8 574.1,454.5 663.5,429.9 659.5,339.3 		"/>
		<polygon class="st9" points="505.5,463.6 572.7,441.8 574.1,454.5 508.1,472.9 		"/>
	</g>
	<path class="st0" d="M362,559.7c0,0,36.4-15.9,47.6-31.6c0,0,12.6,17.4,18,18c0,0-25.1,28.5-53.1,39.1
		C374.4,585.1,365.6,572.6,362,559.7z"/>
	<path class="st21" d="M396.2,540.6c0,0,12.8,17.5,15.9,20.6c5.1-3.8,15.5-15.1,15.5-15.1s-9.3-12.1-18-18L396.2,540.6z"/>
	<path class="st0" d="M457.2,302.7c0,0-7,8.1-10.2,10.6s0.8,7.8,17-5.5C464,307.9,464.5,302.9,457.2,302.7z"/>
	<path class="st0" d="M463.9,307.3c0,0-7.7,8.9-11.2,11.8c-3.5,2.8,0.8,8.6,18.8-6.1C471.4,313,472,307.5,463.9,307.3z"/>
	<path class="st0" d="M470.5,313c0,0-7.7,8.9-11.2,11.8c-3.5,2.8,0.8,8.6,18.8-6.1C478,318.7,478.6,313.2,470.5,313z"/>
	<path class="st0" d="M463.1,334.1c0,0-6.7-9.7-8.5-13.9s-8.5-1.4,1.1,19.7C455.7,340,460.9,341.9,463.1,334.1z"/>
	<path class="st17" d="M363.5,362.4c0,0,22.8-9.1,25.4-14.5c0,0-0.9,8.7-8.4,12.4L363.5,362.4z"/>
	<path class="st17" d="M346.3,370.4c0,0-14,20.2-19.8,21.6c0,0,8.7,1,14-5.4L346.3,370.4z"/>
	<polygon class="st16" points="389.8,468 445.7,436.7 452.6,446.7 383.6,484.1 	"/>
	<polygon class="st0" points="442.8,436.7 449.4,432.7 457.1,445.6 451.8,448.6 	"/>
	<polygon class="st0" points="473.7,414.8 471.9,404.7 491.4,401.1 492.7,409.1 	"/>
	<path class="st0" d="M192.6,607.3c53.7,50.3,165.4-18.8,207.5-152.8c0,0-2.2-1.5-7-2.2c-6.1-0.9-15.4-1.5-18.3-5.2
		c-19.9,3.3-34.3,22.8-40.3,30.8s-31,46.4-50.6,58.6c-17.4,10.7-39.9,13.8-39.9,13.8s-4.8,8.2-9.4,11.6c-4.7,3.4-18,5.1-21,6.8
		C210.6,570.2,211.4,598.9,192.6,607.3z"/>
</g>
</svg>
