<?xml version="1.0" encoding="utf-8"?>
<!-- Generator: Adobe Illustrator 22.0.1, SVG Export Plug-In . SVG Version: 6.00 Build 0)  -->
<svg version="1.1" id="Layer_1" xmlns="http://www.w3.org/2000/svg" xmlns:xlink="http://www.w3.org/1999/xlink" x="0px" y="0px"
	 viewBox="0 0 1080 1080" style="enable-background:new 0 0 1080 1080;" xml:space="preserve">
<style type="text/css">
	.st0{fill:#359345;}
	.st1{fill:#DDA991;}
	.st2{fill:#136293;}
	.st3{fill:#1982C4;}
	.st4{fill:#479BD0;}
	.st5{fill:#FFFFFF;}
	.st6{fill:#75B4DC;}
	.st7{fill:#EDBFA7;}
	.st8{fill:#2C2C2C;}
	.st9{fill:none;stroke:#DDA991;stroke-width:3;stroke-linecap:round;stroke-linejoin:round;stroke-miterlimit:10;}
	.st10{fill:#BF4347;}
	.st11{fill:#FFD15C;}
	.st12{fill:#344A5E;}
	.st13{fill:#415A6B;}
	.st14{display:none;}
	.st15{display:inline;fill:#3D3D3D;}
	.st16{display:inline;fill:#828282;}
	.st17{display:inline;fill:#666666;}
	.st18{display:inline;fill:#232323;}
	.st19{fill:#FF595E;}
	.st20{opacity:5.000000e-02;fill:#E84F4F;}
</style>
<g>
	<g>
		<path class="st0" d="M563.3,480.6c0.2,1.6,1.7,2.6,3.2,2.4l3-0.4l1.1,7.2c0.3,1.7,1.8,2.9,3.5,2.6l0.1,0c1.7-0.3,2.9-1.8,2.6-3.5
			l-1.1-7.2l4.2-0.6l1.1,7.2c0.3,1.7,1.8,2.9,3.5,2.6l0.1,0c1.7-0.3,2.9-1.8,2.6-3.5l-1.1-7.2l3-0.4c1.5-0.2,2.6-1.7,2.4-3.2
			l-3.1-21l-28.3,4.2L563.3,480.6z M563.3,480.6"/>
		<path class="st0" d="M579.5,443.7l1.8-4c0.1-0.2,0-0.6-0.3-0.7c-0.3-0.1-0.6,0-0.7,0.3l-1.9,4.2c-2-0.5-4.1-0.6-6.3-0.3
			c-2.2,0.3-4.2,1.1-5.9,2.1l-3-3.4c-0.2-0.2-0.5-0.2-0.7,0c-0.2,0.2-0.2,0.5,0,0.7l2.9,3.3c-4,2.7-6.3,7.2-5.6,11.7
			c0,0.3,0.1,0.6,0.2,0.8l28.4-4.2c0-0.3,0-0.6-0.1-0.8C587.6,448.7,584.1,445.2,579.5,443.7L579.5,443.7z M566.8,452.4
			c-0.8,0.1-1.5-0.4-1.6-1.2c-0.1-0.8,0.4-1.4,1.2-1.6c0.8-0.1,1.5,0.4,1.6,1.2C568.1,451.5,567.6,452.2,566.8,452.4L566.8,452.4z
			 M580,450.4c-0.8,0.1-1.5-0.4-1.6-1.2c-0.1-0.8,0.4-1.4,1.2-1.6c0.8-0.1,1.5,0.4,1.6,1.2C581.3,449.6,580.8,450.3,580,450.4
			L580,450.4z M580,450.4"/>
		<path class="st0" d="M593.1,454.2l-0.1,0c-1.7,0.3-2.9,1.8-2.6,3.5l2,13.3c0.3,1.7,1.8,2.9,3.5,2.6l0.1,0c1.7-0.3,2.9-1.8,2.6-3.5
			l-2-13.3C596.3,455.2,594.7,454,593.1,454.2L593.1,454.2z M593.1,454.2"/>
		<path class="st0" d="M555.5,459.8l-0.1,0c-1.7,0.3-2.9,1.8-2.6,3.5l2,13.3c0.3,1.7,1.8,2.9,3.5,2.6l0.1,0c1.7-0.3,2.9-1.8,2.6-3.5
			l-2-13.3C558.7,460.8,557.2,459.6,555.5,459.8L555.5,459.8z M555.5,459.8"/>
	</g>
	<g>
		<g>
			<path class="st0" d="M509.4,496.8c0,0.4-0.3,0.6-0.6,0.6l-4.5,0c-0.3,0-0.6-0.2-0.6-0.6c0-0.4,0.3-0.6,0.6-0.6l1.7,0l0-6.7
				l-1.7,0c-0.3,0-0.6-0.2-0.6-0.6c0-0.4,0.3-0.6,0.6-0.6l2.9,0l0,7.8l1.1,0"/>
			<path class="st0" d="M508.8,497.4l-4.5,0c-0.3,0-0.6-0.3-0.6-0.6l0,0c0-0.3,0.3-0.6,0.6-0.6l4.5,0c0.3,0,0.6,0.3,0.6,0.6l0,0
				C509.4,497.1,509.1,497.4,508.8,497.4z"/>
		</g>
		<g>
			<path class="st0" d="M525.9,496.8c0,0.4-0.3,0.6-0.6,0.6l-4.5,0c-0.3,0-0.6-0.2-0.6-0.6c0-0.4,0.3-0.6,0.6-0.6l1.7,0l0-6.7
				l-1.7,0c-0.3,0-0.6-0.2-0.6-0.6c0-0.4,0.3-0.6,0.6-0.6l2.9,0l0,7.8l1.1,0"/>
			<path class="st0" d="M525.3,497.4l-4.5,0c-0.3,0-0.6-0.3-0.6-0.6l0,0c0-0.3,0.3-0.6,0.6-0.6l4.5,0c0.3,0,0.6,0.3,0.6,0.6l0,0
				C525.9,497.1,525.7,497.4,525.3,497.4z"/>
		</g>
		<g>
			<path class="st0" d="M542.4,496.8c0,0.4-0.3,0.6-0.6,0.6l-4.5,0c-0.3,0-0.6-0.2-0.6-0.6c0-0.4,0.3-0.6,0.6-0.6l1.7,0l0-6.7
				l-1.7,0c-0.3,0-0.6-0.2-0.6-0.6c0-0.4,0.3-0.6,0.6-0.6l2.9,0l0,7.8l1.1,0"/>
			<path class="st0" d="M541.8,497.4l-4.5,0c-0.3,0-0.6-0.3-0.6-0.6l0,0c0-0.3,0.3-0.6,0.6-0.6l4.5,0c0.3,0,0.6,0.3,0.6,0.6l0,0
				C542.4,497.1,542.1,497.4,541.8,497.4z"/>
		</g>
		<g>
			<path class="st0" d="M558,496.8c0,0.4-0.3,0.6-0.6,0.6l-4.5,0c-0.3,0-0.6-0.2-0.6-0.6c0-0.4,0.3-0.6,0.6-0.6l1.7,0l0-6.7l-1.7,0
				c-0.3,0-0.6-0.2-0.6-0.6c0-0.4,0.3-0.6,0.6-0.6l2.9,0l0,7.8l1.1,0"/>
			<path class="st0" d="M557.4,497.4l-4.5,0c-0.3,0-0.6-0.3-0.6-0.6l0,0c0-0.3,0.3-0.6,0.6-0.6l4.5,0c0.3,0,0.6,0.3,0.6,0.6l0,0
				C558,497.1,557.7,497.4,557.4,497.4z"/>
		</g>
		<g>
			<path class="st0" d="M516.4,488.2c0.7,0,1.2,0.5,1.2,1.2l0,6.8c0,0.7-0.5,1.2-1.2,1.2l-3.5,0c-0.7,0-1.2-0.5-1.2-1.2l0-6.8
				c0-0.7,0.5-1.2,1.2-1.2L516.4,488.2z M516.4,496.2l0-6.8l-3.5,0l0,6.8L516.4,496.2z"/>
		</g>
		<g>
			<path class="st0" d="M532.9,488.2c0.7,0,1.2,0.5,1.2,1.2l0,6.8c0,0.7-0.5,1.2-1.2,1.2l-3.5,0c-0.7,0-1.2-0.5-1.2-1.2l0-6.8
				c0-0.7,0.5-1.2,1.2-1.2L532.9,488.2z M532.9,496.2l0-6.8l-3.5,0l0,6.8L532.9,496.2z"/>
		</g>
		<g>
			<path class="st0" d="M549.1,488.2c0.7,0,1.2,0.5,1.2,1.2l0,6.8c0,0.7-0.5,1.2-1.2,1.2l-3.5,0c-0.7,0-1.2-0.5-1.2-1.2l0-6.8
				c0-0.7,0.5-1.2,1.2-1.2L549.1,488.2z M549.1,496.2l0-6.8l-3.5,0l0,6.8L549.1,496.2z"/>
		</g>
		<g>
			<path class="st0" d="M509.4,473c0,0.4-0.3,0.6-0.6,0.6l-4.5,0c-0.3,0-0.6-0.2-0.6-0.6c0-0.4,0.3-0.6,0.6-0.6l1.7,0l0-6.7l-1.7,0
				c-0.3,0-0.6-0.2-0.6-0.6c0-0.4,0.3-0.6,0.6-0.6l2.9,0l0,7.8l1.1,0"/>
			<path class="st0" d="M508.8,473.6l-4.5,0c-0.3,0-0.6-0.3-0.6-0.6l0,0c0-0.3,0.3-0.6,0.6-0.6l4.5,0c0.3,0,0.6,0.3,0.6,0.6l0,0
				C509.4,473.3,509.1,473.6,508.8,473.6z"/>
		</g>
		<g>
			<path class="st0" d="M525.9,473c0,0.4-0.3,0.6-0.6,0.6l-4.5,0c-0.3,0-0.6-0.2-0.6-0.6c0-0.4,0.3-0.6,0.6-0.6l1.7,0l0-6.7l-1.7,0
				c-0.3,0-0.6-0.2-0.6-0.6c0-0.4,0.3-0.6,0.6-0.6l2.9,0l0,7.8l1.1,0"/>
			<path class="st0" d="M525.3,473.6l-4.5,0c-0.3,0-0.6-0.3-0.6-0.6l0,0c0-0.3,0.3-0.6,0.6-0.6l4.5,0c0.3,0,0.6,0.3,0.6,0.6l0,0
				C525.9,473.3,525.7,473.6,525.3,473.6z"/>
		</g>
		<g>
			<path class="st0" d="M542.4,473c0,0.4-0.3,0.6-0.6,0.6l-4.5,0c-0.3,0-0.6-0.2-0.6-0.6c0-0.4,0.3-0.6,0.6-0.6l1.7,0l0-6.7l-1.7,0
				c-0.3,0-0.6-0.2-0.6-0.6c0-0.4,0.3-0.6,0.6-0.6l2.9,0l0,7.8l1.1,0"/>
			<path class="st0" d="M541.8,473.6l-4.5,0c-0.3,0-0.6-0.3-0.6-0.6l0,0c0-0.3,0.3-0.6,0.6-0.6l4.5,0c0.3,0,0.6,0.3,0.6,0.6l0,0
				C542.4,473.3,542.1,473.6,541.8,473.6z"/>
		</g>
		<g>
			<path class="st0" d="M558,473c0,0.4-0.3,0.6-0.6,0.6l-4.5,0c-0.3,0-0.6-0.2-0.6-0.6c0-0.4,0.3-0.6,0.6-0.6l1.7,0l0-6.7l-1.7,0
				c-0.3,0-0.6-0.2-0.6-0.6c0-0.4,0.3-0.6,0.6-0.6l2.9,0l0,7.8l1.1,0"/>
			<path class="st0" d="M557.4,473.6l-4.5,0c-0.3,0-0.6-0.3-0.6-0.6l0,0c0-0.3,0.3-0.6,0.6-0.6l4.5,0c0.3,0,0.6,0.3,0.6,0.6l0,0
				C558,473.3,557.7,473.6,557.4,473.6z"/>
		</g>
		<g>
			<path class="st0" d="M516.4,464.4c0.7,0,1.2,0.5,1.2,1.2l0,6.8c0,0.7-0.5,1.2-1.2,1.2l-3.5,0c-0.7,0-1.2-0.5-1.2-1.2l0-6.8
				c0-0.7,0.5-1.2,1.2-1.2L516.4,464.4z M516.4,472.4l0-6.8l-3.5,0l0,6.8L516.4,472.4z"/>
		</g>
		<g>
			<path class="st0" d="M532.9,464.4c0.7,0,1.2,0.5,1.2,1.2l0,6.8c0,0.7-0.5,1.2-1.2,1.2l-3.5,0c-0.7,0-1.2-0.5-1.2-1.2l0-6.8
				c0-0.7,0.5-1.2,1.2-1.2L532.9,464.4z M532.9,472.4l0-6.8l-3.5,0l0,6.8L532.9,472.4z"/>
		</g>
		<g>
			<path class="st0" d="M549.1,464.4c0.7,0,1.2,0.5,1.2,1.2l0,6.8c0,0.7-0.5,1.2-1.2,1.2l-3.5,0c-0.7,0-1.2-0.5-1.2-1.2l0-6.8
				c0-0.7,0.5-1.2,1.2-1.2L549.1,464.4z M549.1,472.4l0-6.8l-3.5,0l0,6.8L549.1,472.4z"/>
		</g>
		<g>
			<path class="st0" d="M509.4,450.3c0,0.4-0.3,0.6-0.6,0.6l-4.5,0c-0.3,0-0.6-0.2-0.6-0.6c0-0.4,0.3-0.6,0.6-0.6l1.7,0l0-6.7
				l-1.7,0c-0.3,0-0.6-0.2-0.6-0.6c0-0.4,0.3-0.6,0.6-0.6l2.9,0l0,7.8l1.1,0"/>
			<path class="st0" d="M508.8,450.9l-4.5,0c-0.3,0-0.6-0.3-0.6-0.6l0,0c0-0.3,0.3-0.6,0.6-0.6l4.5,0c0.3,0,0.6,0.3,0.6,0.6l0,0
				C509.4,450.6,509.1,450.9,508.8,450.9z"/>
		</g>
		<g>
			<path class="st0" d="M525.9,450.3c0,0.4-0.3,0.6-0.6,0.6l-4.5,0c-0.3,0-0.6-0.2-0.6-0.6c0-0.4,0.3-0.6,0.6-0.6l1.7,0l0-6.7
				l-1.7,0c-0.3,0-0.6-0.2-0.6-0.6c0-0.4,0.3-0.6,0.6-0.6l2.9,0l0,7.8l1.1,0"/>
			<path class="st0" d="M525.3,450.9l-4.5,0c-0.3,0-0.6-0.3-0.6-0.6l0,0c0-0.3,0.3-0.6,0.6-0.6l4.5,0c0.3,0,0.6,0.3,0.6,0.6l0,0
				C525.9,450.6,525.7,450.9,525.3,450.9z"/>
		</g>
		<g>
			<path class="st0" d="M542.4,450.3c0,0.4-0.3,0.6-0.6,0.6l-4.5,0c-0.3,0-0.6-0.2-0.6-0.6c0-0.4,0.3-0.6,0.6-0.6l1.7,0l0-6.7
				l-1.7,0c-0.3,0-0.6-0.2-0.6-0.6c0-0.4,0.3-0.6,0.6-0.6l2.9,0l0,7.8l1.1,0"/>
			<path class="st0" d="M541.8,450.9l-4.5,0c-0.3,0-0.6-0.3-0.6-0.6l0,0c0-0.3,0.3-0.6,0.6-0.6l4.5,0c0.3,0,0.6,0.3,0.6,0.6l0,0
				C542.4,450.6,542.1,450.9,541.8,450.9z"/>
		</g>
		<g>
			<path class="st0" d="M558,450.3c0,0.4-0.3,0.6-0.6,0.6l-4.5,0c-0.3,0-0.6-0.2-0.6-0.6c0-0.4,0.3-0.6,0.6-0.6l1.7,0l0-6.7l-1.7,0
				c-0.3,0-0.6-0.2-0.6-0.6c0-0.4,0.3-0.6,0.6-0.6l2.9,0l0,7.8l1.1,0"/>
			<path class="st0" d="M557.4,450.9l-4.5,0c-0.3,0-0.6-0.3-0.6-0.6l0,0c0-0.3,0.3-0.6,0.6-0.6l4.5,0c0.3,0,0.6,0.3,0.6,0.6l0,0
				C558,450.6,557.7,450.9,557.4,450.9z"/>
		</g>
		<g>
			<path class="st0" d="M516.4,441.7c0.7,0,1.2,0.5,1.2,1.2l0,6.8c0,0.7-0.5,1.2-1.2,1.2l-3.5,0c-0.7,0-1.2-0.5-1.2-1.2l0-6.8
				c0-0.7,0.5-1.2,1.2-1.2L516.4,441.7z M516.4,449.7l0-6.8l-3.5,0l0,6.8L516.4,449.7z"/>
		</g>
		<g>
			<path class="st0" d="M532.9,441.7c0.7,0,1.2,0.5,1.2,1.2l0,6.8c0,0.7-0.5,1.2-1.2,1.2l-3.5,0c-0.7,0-1.2-0.5-1.2-1.2l0-6.8
				c0-0.7,0.5-1.2,1.2-1.2L532.9,441.7z M532.9,449.7l0-6.8l-3.5,0l0,6.8L532.9,449.7z"/>
		</g>
		<g>
			<path class="st0" d="M549.1,441.7c0.7,0,1.2,0.5,1.2,1.2l0,6.8c0,0.7-0.5,1.2-1.2,1.2l-3.5,0c-0.7,0-1.2-0.5-1.2-1.2l0-6.8
				c0-0.7,0.5-1.2,1.2-1.2L549.1,441.7z M549.1,449.7l0-6.8l-3.5,0l0,6.8L549.1,449.7z"/>
		</g>
		<g>
			<path class="st0" d="M509.4,428.1c0,0.4-0.3,0.6-0.6,0.6l-4.5,0c-0.3,0-0.6-0.2-0.6-0.6c0-0.4,0.3-0.6,0.6-0.6l1.7,0l0-6.7
				l-1.7,0c-0.3,0-0.6-0.2-0.6-0.6c0-0.4,0.3-0.6,0.6-0.6l2.9,0l0,7.8l1.1,0"/>
			<path class="st0" d="M508.8,428.6l-4.5,0c-0.3,0-0.6-0.3-0.6-0.6l0,0c0-0.3,0.3-0.6,0.6-0.6l4.5,0c0.3,0,0.6,0.3,0.6,0.6l0,0
				C509.4,428.4,509.1,428.6,508.8,428.6z"/>
		</g>
		<g>
			<path class="st0" d="M525.9,428.1c0,0.4-0.3,0.6-0.6,0.6l-4.5,0c-0.3,0-0.6-0.2-0.6-0.6c0-0.4,0.3-0.6,0.6-0.6l1.7,0l0-6.7
				l-1.7,0c-0.3,0-0.6-0.2-0.6-0.6c0-0.4,0.3-0.6,0.6-0.6l2.9,0l0,7.8l1.1,0"/>
			<path class="st0" d="M525.3,428.6l-4.5,0c-0.3,0-0.6-0.3-0.6-0.6l0,0c0-0.3,0.3-0.6,0.6-0.6l4.5,0c0.3,0,0.6,0.3,0.6,0.6l0,0
				C525.9,428.4,525.7,428.6,525.3,428.6z"/>
		</g>
		<g>
			<path class="st0" d="M542.4,428.1c0,0.4-0.3,0.6-0.6,0.6l-4.5,0c-0.3,0-0.6-0.2-0.6-0.6c0-0.4,0.3-0.6,0.6-0.6l1.7,0l0-6.7
				l-1.7,0c-0.3,0-0.6-0.2-0.6-0.6c0-0.4,0.3-0.6,0.6-0.6l2.9,0l0,7.8l1.1,0"/>
			<path class="st0" d="M541.8,428.6l-4.5,0c-0.3,0-0.6-0.3-0.6-0.6l0,0c0-0.3,0.3-0.6,0.6-0.6l4.5,0c0.3,0,0.6,0.3,0.6,0.6l0,0
				C542.4,428.4,542.1,428.6,541.8,428.6z"/>
		</g>
		<g>
			<path class="st0" d="M558,428.1c0,0.4-0.3,0.6-0.6,0.6l-4.5,0c-0.3,0-0.6-0.2-0.6-0.6c0-0.4,0.3-0.6,0.6-0.6l1.7,0l0-6.7l-1.7,0
				c-0.3,0-0.6-0.2-0.6-0.6c0-0.4,0.3-0.6,0.6-0.6l2.9,0l0,7.8l1.1,0"/>
			<path class="st0" d="M557.4,428.6l-4.5,0c-0.3,0-0.6-0.3-0.6-0.6l0,0c0-0.3,0.3-0.6,0.6-0.6l4.5,0c0.3,0,0.6,0.3,0.6,0.6l0,0
				C558,428.4,557.7,428.6,557.4,428.6z"/>
		</g>
		<g>
			<path class="st0" d="M516.4,419.4c0.7,0,1.2,0.5,1.2,1.2l0,6.8c0,0.7-0.5,1.2-1.2,1.2l-3.5,0c-0.7,0-1.2-0.5-1.2-1.2l0-6.8
				c0-0.7,0.5-1.2,1.2-1.2L516.4,419.4z M516.4,427.4l0-6.8l-3.5,0l0,6.8L516.4,427.4z"/>
		</g>
		<g>
			<path class="st0" d="M532.9,419.4c0.7,0,1.2,0.5,1.2,1.2l0,6.8c0,0.7-0.5,1.2-1.2,1.2l-3.5,0c-0.7,0-1.2-0.5-1.2-1.2l0-6.8
				c0-0.7,0.5-1.2,1.2-1.2L532.9,419.4z M532.9,427.4l0-6.8l-3.5,0l0,6.8L532.9,427.4z"/>
		</g>
		<g>
			<path class="st0" d="M549.1,419.4c0.7,0,1.2,0.5,1.2,1.2l0,6.8c0,0.7-0.5,1.2-1.2,1.2l-3.5,0c-0.7,0-1.2-0.5-1.2-1.2l0-6.8
				c0-0.7,0.5-1.2,1.2-1.2L549.1,419.4z M549.1,427.4l0-6.8l-3.5,0l0,6.8L549.1,427.4z"/>
		</g>
		<g>
			<path class="st0" d="M509.4,404.9c0,0.4-0.3,0.6-0.6,0.6l-4.5,0c-0.3,0-0.6-0.2-0.6-0.6c0-0.4,0.3-0.6,0.6-0.6l1.7,0l0-6.7
				l-1.7,0c-0.3,0-0.6-0.2-0.6-0.6c0-0.4,0.3-0.6,0.6-0.6l2.9,0l0,7.8l1.1,0"/>
			<path class="st0" d="M508.8,405.5l-4.5,0c-0.3,0-0.6-0.3-0.6-0.6v0c0-0.3,0.3-0.6,0.6-0.6l4.5,0c0.3,0,0.6,0.3,0.6,0.6l0,0
				C509.4,405.2,509.1,405.5,508.8,405.5z"/>
		</g>
		<g>
			<path class="st0" d="M525.9,404.9c0,0.4-0.3,0.6-0.6,0.6l-4.5,0c-0.3,0-0.6-0.2-0.6-0.6c0-0.4,0.3-0.6,0.6-0.6l1.7,0l0-6.7
				l-1.7,0c-0.3,0-0.6-0.2-0.6-0.6c0-0.4,0.3-0.6,0.6-0.6l2.9,0l0,7.8l1.1,0"/>
			<path class="st0" d="M525.3,405.5l-4.5,0c-0.3,0-0.6-0.3-0.6-0.6v0c0-0.3,0.3-0.6,0.6-0.6l4.5,0c0.3,0,0.6,0.3,0.6,0.6l0,0
				C525.9,405.2,525.7,405.5,525.3,405.5z"/>
		</g>
		<g>
			<path class="st0" d="M542.4,404.9c0,0.4-0.3,0.6-0.6,0.6l-4.5,0c-0.3,0-0.6-0.2-0.6-0.6c0-0.4,0.3-0.6,0.6-0.6l1.7,0l0-6.7
				l-1.7,0c-0.3,0-0.6-0.2-0.6-0.6c0-0.4,0.3-0.6,0.6-0.6l2.9,0l0,7.8l1.1,0"/>
			<path class="st0" d="M541.8,405.5l-4.5,0c-0.3,0-0.6-0.3-0.6-0.6v0c0-0.3,0.3-0.6,0.6-0.6l4.5,0c0.3,0,0.6,0.3,0.6,0.6l0,0
				C542.4,405.2,542.1,405.5,541.8,405.5z"/>
		</g>
		<g>
			<path class="st0" d="M558,404.9c0,0.4-0.3,0.6-0.6,0.6l-4.5,0c-0.3,0-0.6-0.2-0.6-0.6c0-0.4,0.3-0.6,0.6-0.6l1.7,0l0-6.7l-1.7,0
				c-0.3,0-0.6-0.2-0.6-0.6c0-0.4,0.3-0.6,0.6-0.6l2.9,0l0,7.8l1.1,0"/>
			<path class="st0" d="M557.4,405.5l-4.5,0c-0.3,0-0.6-0.3-0.6-0.6v0c0-0.3,0.3-0.6,0.6-0.6l4.5,0c0.3,0,0.6,0.3,0.6,0.6l0,0
				C558,405.2,557.7,405.5,557.4,405.5z"/>
		</g>
		<g>
			<path class="st0" d="M516.4,396.3c0.7,0,1.2,0.5,1.2,1.2l0,6.8c0,0.7-0.5,1.2-1.2,1.2l-3.5,0c-0.7,0-1.2-0.5-1.2-1.2l0-6.8
				c0-0.7,0.5-1.2,1.2-1.2L516.4,396.3z M516.4,404.3l0-6.8l-3.5,0l0,6.8L516.4,404.3z"/>
		</g>
		<g>
			<path class="st0" d="M532.9,396.3c0.7,0,1.2,0.5,1.2,1.2l0,6.8c0,0.7-0.5,1.2-1.2,1.2l-3.5,0c-0.7,0-1.2-0.5-1.2-1.2l0-6.8
				c0-0.7,0.5-1.2,1.2-1.2L532.9,396.3z M532.9,404.3l0-6.8l-3.5,0l0,6.8L532.9,404.3z"/>
		</g>
		<g>
			<path class="st0" d="M549.1,396.3c0.7,0,1.2,0.5,1.2,1.2l0,6.8c0,0.7-0.5,1.2-1.2,1.2l-3.5,0c-0.7,0-1.2-0.5-1.2-1.2l0-6.8
				c0-0.7,0.5-1.2,1.2-1.2L549.1,396.3z M549.1,404.3l0-6.8l-3.5,0l0,6.8L549.1,404.3z"/>
		</g>
		<g>
			<path class="st0" d="M517.5,485c0,0.4-0.3,0.6-0.6,0.6l-4.5,0c-0.3,0-0.6-0.2-0.6-0.6c0-0.4,0.3-0.6,0.6-0.6l1.7,0l0-6.7l-1.7,0
				c-0.3,0-0.6-0.2-0.6-0.6c0-0.4,0.3-0.6,0.6-0.6l2.9,0l0,7.8l1.1,0"/>
			<path class="st0" d="M516.9,485.6l-4.5,0c-0.3,0-0.6-0.3-0.6-0.6l0,0c0-0.3,0.3-0.6,0.6-0.6l4.5,0c0.3,0,0.6,0.3,0.6,0.6l0,0
				C517.5,485.4,517.2,485.6,516.9,485.6z"/>
		</g>
		<g>
			<path class="st0" d="M534,485c0,0.4-0.3,0.6-0.6,0.6l-4.5,0c-0.3,0-0.6-0.2-0.6-0.6c0-0.4,0.3-0.6,0.6-0.6l1.7,0l0-6.7l-1.7,0
				c-0.3,0-0.6-0.2-0.6-0.6c0-0.4,0.3-0.6,0.6-0.6l2.9,0l0,7.8l1.1,0"/>
			<path class="st0" d="M533.4,485.6l-4.5,0c-0.3,0-0.6-0.3-0.6-0.6l0,0c0-0.3,0.3-0.6,0.6-0.6l4.5,0c0.3,0,0.6,0.3,0.6,0.6l0,0
				C534,485.4,533.8,485.6,533.4,485.6z"/>
		</g>
		<g>
			<path class="st0" d="M550.5,485c0,0.4-0.3,0.6-0.6,0.6l-4.5,0c-0.3,0-0.6-0.2-0.6-0.6c0-0.4,0.3-0.6,0.6-0.6l1.7,0l0-6.7l-1.7,0
				c-0.3,0-0.6-0.2-0.6-0.6c0-0.4,0.3-0.6,0.6-0.6l2.9,0l0,7.8l1.1,0"/>
			<path class="st0" d="M549.9,485.6l-4.5,0c-0.3,0-0.6-0.3-0.6-0.6l0,0c0-0.3,0.3-0.6,0.6-0.6l4.5,0c0.3,0,0.6,0.3,0.6,0.6l0,0
				C550.5,485.4,550.2,485.6,549.9,485.6z"/>
		</g>
		<g>
			<path class="st0" d="M524.5,476.4c0.7,0,1.2,0.5,1.2,1.2l0,6.8c0,0.7-0.5,1.2-1.2,1.2l-3.5,0c-0.7,0-1.2-0.5-1.2-1.2l0-6.8
				c0-0.7,0.5-1.2,1.2-1.2L524.5,476.4z M524.5,484.4l0-6.8l-3.5,0l0,6.8L524.5,484.4z"/>
		</g>
		<g>
			<path class="st0" d="M541,476.4c0.7,0,1.2,0.5,1.2,1.2l0,6.8c0,0.7-0.5,1.2-1.2,1.2l-3.5,0c-0.7,0-1.2-0.5-1.2-1.2l0-6.8
				c0-0.7,0.5-1.2,1.2-1.2L541,476.4z M541,484.4l0-6.8l-3.5,0l0,6.8L541,484.4z"/>
		</g>
		<g>
			<path class="st0" d="M557.2,476.4c0.7,0,1.2,0.5,1.2,1.2l0,6.8c0,0.7-0.5,1.2-1.2,1.2l-3.5,0c-0.7,0-1.2-0.5-1.2-1.2l0-6.8
				c0-0.7,0.5-1.2,1.2-1.2L557.2,476.4z M557.2,484.4l0-6.8l-3.5,0l0,6.8L557.2,484.4z"/>
		</g>
		<g>
			<path class="st0" d="M508.3,476.4c0.7,0,1.2,0.5,1.2,1.2l0,6.8c0,0.7-0.5,1.2-1.2,1.2l-3.5,0c-0.7,0-1.2-0.5-1.2-1.2l0-6.8
				c0-0.7,0.5-1.2,1.2-1.2L508.3,476.4z M508.3,484.4l0-6.8l-3.5,0l0,6.8L508.3,484.4z"/>
		</g>
		<g>
			<path class="st0" d="M517.5,461.5c0,0.4-0.3,0.6-0.6,0.6l-4.5,0c-0.3,0-0.6-0.2-0.6-0.6c0-0.4,0.3-0.6,0.6-0.6l1.7,0l0-6.7
				l-1.7,0c-0.3,0-0.6-0.2-0.6-0.6c0-0.4,0.3-0.6,0.6-0.6l2.9,0l0,7.8l1.1,0"/>
			<path class="st0" d="M516.9,462.1l-4.5,0c-0.3,0-0.6-0.3-0.6-0.6l0,0c0-0.3,0.3-0.6,0.6-0.6l4.5,0c0.3,0,0.6,0.3,0.6,0.6l0,0
				C517.5,461.9,517.2,462.1,516.9,462.1z"/>
		</g>
		<g>
			<path class="st0" d="M534,461.5c0,0.4-0.3,0.6-0.6,0.6l-4.5,0c-0.3,0-0.6-0.2-0.6-0.6c0-0.4,0.3-0.6,0.6-0.6l1.7,0l0-6.7l-1.7,0
				c-0.3,0-0.6-0.2-0.6-0.6c0-0.4,0.3-0.6,0.6-0.6l2.9,0l0,7.8l1.1,0"/>
			<path class="st0" d="M533.4,462.1l-4.5,0c-0.3,0-0.6-0.3-0.6-0.6l0,0c0-0.3,0.3-0.6,0.6-0.6l4.5,0c0.3,0,0.6,0.3,0.6,0.6l0,0
				C534,461.9,533.8,462.1,533.4,462.1z"/>
		</g>
		<g>
			<path class="st0" d="M550.5,461.5c0,0.4-0.3,0.6-0.6,0.6l-4.5,0c-0.3,0-0.6-0.2-0.6-0.6c0-0.4,0.3-0.6,0.6-0.6l1.7,0l0-6.7
				l-1.7,0c-0.3,0-0.6-0.2-0.6-0.6c0-0.4,0.3-0.6,0.6-0.6l2.9,0l0,7.8l1.1,0"/>
			<path class="st0" d="M549.9,462.1l-4.5,0c-0.3,0-0.6-0.3-0.6-0.6l0,0c0-0.3,0.3-0.6,0.6-0.6l4.5,0c0.3,0,0.6,0.3,0.6,0.6l0,0
				C550.5,461.9,550.2,462.1,549.9,462.1z"/>
		</g>
		<g>
			<path class="st0" d="M524.5,452.9c0.7,0,1.2,0.5,1.2,1.2l0,6.8c0,0.7-0.5,1.2-1.2,1.2l-3.5,0c-0.7,0-1.2-0.5-1.2-1.2l0-6.8
				c0-0.7,0.5-1.2,1.2-1.2L524.5,452.9z M524.5,460.9l0-6.8l-3.5,0l0,6.8L524.5,460.9z"/>
		</g>
		<g>
			<path class="st0" d="M541,452.9c0.7,0,1.2,0.5,1.2,1.2l0,6.8c0,0.7-0.5,1.2-1.2,1.2l-3.5,0c-0.7,0-1.2-0.5-1.2-1.2l0-6.8
				c0-0.7,0.5-1.2,1.2-1.2L541,452.9z M541,460.9l0-6.8l-3.5,0l0,6.8L541,460.9z"/>
		</g>
		<g>
			<path class="st0" d="M557.2,452.9c0.7,0,1.2,0.5,1.2,1.2l0,6.8c0,0.7-0.5,1.2-1.2,1.2l-3.5,0c-0.7,0-1.2-0.5-1.2-1.2l0-6.8
				c0-0.7,0.5-1.2,1.2-1.2L557.2,452.9z M557.2,460.9l0-6.8l-3.5,0l0,6.8L557.2,460.9z"/>
		</g>
		<g>
			<path class="st0" d="M508.3,452.9c0.7,0,1.2,0.5,1.2,1.2l0,6.8c0,0.7-0.5,1.2-1.2,1.2l-3.5,0c-0.7,0-1.2-0.5-1.2-1.2l0-6.8
				c0-0.7,0.5-1.2,1.2-1.2L508.3,452.9z M508.3,460.9l0-6.8l-3.5,0l0,6.8L508.3,460.9z"/>
		</g>
		<g>
			<path class="st0" d="M517.5,439.3c0,0.4-0.3,0.6-0.6,0.6l-4.5,0c-0.3,0-0.6-0.2-0.6-0.6c0-0.4,0.3-0.6,0.6-0.6l1.7,0l0-6.7
				l-1.7,0c-0.3,0-0.6-0.2-0.6-0.6c0-0.4,0.3-0.6,0.6-0.6l2.9,0l0,7.8l1.1,0"/>
			<path class="st0" d="M516.9,439.9l-4.5,0c-0.3,0-0.6-0.3-0.6-0.6l0,0c0-0.3,0.3-0.6,0.6-0.6l4.5,0c0.3,0,0.6,0.3,0.6,0.6v0
				C517.5,439.6,517.2,439.9,516.9,439.9z"/>
		</g>
		<g>
			<path class="st0" d="M534,439.3c0,0.4-0.3,0.6-0.6,0.6l-4.5,0c-0.3,0-0.6-0.2-0.6-0.6c0-0.4,0.3-0.6,0.6-0.6l1.7,0l0-6.7l-1.7,0
				c-0.3,0-0.6-0.2-0.6-0.6c0-0.4,0.3-0.6,0.6-0.6l2.9,0l0,7.8l1.1,0"/>
			<path class="st0" d="M533.4,439.9l-4.5,0c-0.3,0-0.6-0.3-0.6-0.6l0,0c0-0.3,0.3-0.6,0.6-0.6l4.5,0c0.3,0,0.6,0.3,0.6,0.6v0
				C534,439.6,533.8,439.9,533.4,439.9z"/>
		</g>
		<g>
			<path class="st0" d="M550.5,439.3c0,0.4-0.3,0.6-0.6,0.6l-4.5,0c-0.3,0-0.6-0.2-0.6-0.6c0-0.4,0.3-0.6,0.6-0.6l1.7,0l0-6.7
				l-1.7,0c-0.3,0-0.6-0.2-0.6-0.6c0-0.4,0.3-0.6,0.6-0.6l2.9,0l0,7.8l1.1,0"/>
			<path class="st0" d="M549.9,439.9l-4.5,0c-0.3,0-0.6-0.3-0.6-0.6l0,0c0-0.3,0.3-0.6,0.6-0.6l4.5,0c0.3,0,0.6,0.3,0.6,0.6v0
				C550.5,439.6,550.2,439.9,549.9,439.9z"/>
		</g>
		<g>
			<path class="st0" d="M524.5,430.6c0.7,0,1.2,0.5,1.2,1.2l0,6.8c0,0.7-0.5,1.2-1.2,1.2l-3.5,0c-0.7,0-1.2-0.5-1.2-1.2l0-6.8
				c0-0.7,0.5-1.2,1.2-1.2L524.5,430.6z M524.5,438.7l0-6.8l-3.5,0l0,6.8L524.5,438.7z"/>
		</g>
		<g>
			<path class="st0" d="M541,430.6c0.7,0,1.2,0.5,1.2,1.2l0,6.8c0,0.7-0.5,1.2-1.2,1.2l-3.5,0c-0.7,0-1.2-0.5-1.2-1.2l0-6.8
				c0-0.7,0.5-1.2,1.2-1.2L541,430.6z M541,438.7l0-6.8l-3.5,0l0,6.8L541,438.7z"/>
		</g>
		<g>
			<path class="st0" d="M557.2,430.6c0.7,0,1.2,0.5,1.2,1.2l0,6.8c0,0.7-0.5,1.2-1.2,1.2l-3.5,0c-0.7,0-1.2-0.5-1.2-1.2l0-6.8
				c0-0.7,0.5-1.2,1.2-1.2L557.2,430.6z M557.2,438.7l0-6.8l-3.5,0l0,6.8L557.2,438.7z"/>
		</g>
		<g>
			<path class="st0" d="M508.3,430.6c0.7,0,1.2,0.5,1.2,1.2l0,6.8c0,0.7-0.5,1.2-1.2,1.2l-3.5,0c-0.7,0-1.2-0.5-1.2-1.2l0-6.8
				c0-0.7,0.5-1.2,1.2-1.2L508.3,430.6z M508.3,438.7l0-6.8l-3.5,0l0,6.8L508.3,438.7z"/>
		</g>
		<g>
			<path class="st0" d="M517.5,416.6c0,0.4-0.3,0.6-0.6,0.6l-4.5,0c-0.3,0-0.6-0.2-0.6-0.6c0-0.4,0.3-0.6,0.6-0.6l1.7,0l0-6.7
				l-1.7,0c-0.3,0-0.6-0.2-0.6-0.6c0-0.4,0.3-0.6,0.6-0.6l2.9,0l0,7.8l1.1,0"/>
			<path class="st0" d="M516.9,417.2l-4.5,0c-0.3,0-0.6-0.3-0.6-0.6l0,0c0-0.3,0.3-0.6,0.6-0.6l4.5,0c0.3,0,0.6,0.3,0.6,0.6l0,0
				C517.5,416.9,517.2,417.2,516.9,417.2z"/>
		</g>
		<g>
			<path class="st0" d="M534,416.6c0,0.4-0.3,0.6-0.6,0.6l-4.5,0c-0.3,0-0.6-0.2-0.6-0.6c0-0.4,0.3-0.6,0.6-0.6l1.7,0l0-6.7l-1.7,0
				c-0.3,0-0.6-0.2-0.6-0.6c0-0.4,0.3-0.6,0.6-0.6l2.9,0l0,7.8l1.1,0"/>
			<path class="st0" d="M533.4,417.2l-4.5,0c-0.3,0-0.6-0.3-0.6-0.6l0,0c0-0.3,0.3-0.6,0.6-0.6l4.5,0c0.3,0,0.6,0.3,0.6,0.6l0,0
				C534,416.9,533.8,417.2,533.4,417.2z"/>
		</g>
		<g>
			<path class="st0" d="M550.5,416.6c0,0.4-0.3,0.6-0.6,0.6l-4.5,0c-0.3,0-0.6-0.2-0.6-0.6c0-0.4,0.3-0.6,0.6-0.6l1.7,0l0-6.7
				l-1.7,0c-0.3,0-0.6-0.2-0.6-0.6c0-0.4,0.3-0.6,0.6-0.6l2.9,0l0,7.8l1.1,0"/>
			<path class="st0" d="M549.9,417.2l-4.5,0c-0.3,0-0.6-0.3-0.6-0.6l0,0c0-0.3,0.3-0.6,0.6-0.6l4.5,0c0.3,0,0.6,0.3,0.6,0.6l0,0
				C550.5,416.9,550.2,417.2,549.9,417.2z"/>
		</g>
		<g>
			<path class="st0" d="M524.5,407.9c0.7,0,1.2,0.5,1.2,1.2l0,6.8c0,0.7-0.5,1.2-1.2,1.2l-3.5,0c-0.7,0-1.2-0.5-1.2-1.2l0-6.8
				c0-0.7,0.5-1.2,1.2-1.2L524.5,407.9z M524.5,416l0-6.8l-3.5,0l0,6.8L524.5,416z"/>
		</g>
		<g>
			<path class="st0" d="M541,407.9c0.7,0,1.2,0.5,1.2,1.2l0,6.8c0,0.7-0.5,1.2-1.2,1.2l-3.5,0c-0.7,0-1.2-0.5-1.2-1.2l0-6.8
				c0-0.7,0.5-1.2,1.2-1.2L541,407.9z M541,416l0-6.8l-3.5,0l0,6.8L541,416z"/>
		</g>
		<g>
			<path class="st0" d="M557.2,407.9c0.7,0,1.2,0.5,1.2,1.2l0,6.8c0,0.7-0.5,1.2-1.2,1.2l-3.5,0c-0.7,0-1.2-0.5-1.2-1.2l0-6.8
				c0-0.7,0.5-1.2,1.2-1.2L557.2,407.9z M557.2,416l0-6.8l-3.5,0l0,6.8L557.2,416z"/>
		</g>
		<g>
			<path class="st0" d="M508.3,407.9c0.7,0,1.2,0.5,1.2,1.2l0,6.8c0,0.7-0.5,1.2-1.2,1.2l-3.5,0c-0.7,0-1.2-0.5-1.2-1.2l0-6.8
				c0-0.7,0.5-1.2,1.2-1.2L508.3,407.9z M508.3,416l0-6.8l-3.5,0l0,6.8L508.3,416z"/>
		</g>
	</g>
	<g>
		<g>
			<path class="st0" d="M509.3,359.3c0,0.4-0.3,0.6-0.6,0.6l-4.5,0c-0.3,0-0.6-0.2-0.6-0.6c0-0.4,0.3-0.6,0.6-0.6l1.7,0l0-6.7
				l-1.7,0c-0.3,0-0.6-0.2-0.6-0.6c0-0.4,0.3-0.6,0.6-0.6l2.9,0l0,7.8l1.1,0"/>
			<path class="st0" d="M508.8,359.9l-4.5,0c-0.3,0-0.6-0.3-0.6-0.6l0,0c0-0.3,0.3-0.6,0.6-0.6l4.5,0c0.3,0,0.6,0.3,0.6,0.6l0,0
				C509.3,359.6,509.1,359.9,508.8,359.9z"/>
		</g>
		<g>
			<path class="st0" d="M525.9,359.3c0,0.4-0.3,0.6-0.6,0.6l-4.5,0c-0.3,0-0.6-0.2-0.6-0.6c0-0.4,0.3-0.6,0.6-0.6l1.7,0l0-6.7
				l-1.7,0c-0.3,0-0.6-0.2-0.6-0.6c0-0.4,0.3-0.6,0.6-0.6l2.9,0l0,7.8l1.1,0"/>
			<path class="st0" d="M525.3,359.9l-4.5,0c-0.3,0-0.6-0.3-0.6-0.6l0,0c0-0.3,0.3-0.6,0.6-0.6l4.5,0c0.3,0,0.6,0.3,0.6,0.6l0,0
				C525.9,359.6,525.6,359.9,525.3,359.9z"/>
		</g>
		<g>
			<path class="st0" d="M542.3,359.3c0,0.4-0.3,0.6-0.6,0.6l-4.5,0c-0.3,0-0.6-0.2-0.6-0.6c0-0.4,0.3-0.6,0.6-0.6l1.7,0l0-6.7
				l-1.7,0c-0.3,0-0.6-0.2-0.6-0.6c0-0.4,0.3-0.6,0.6-0.6l2.9,0l0,7.8l1.1,0"/>
			<path class="st0" d="M541.8,359.9l-4.5,0c-0.3,0-0.6-0.3-0.6-0.6l0,0c0-0.3,0.3-0.6,0.6-0.6l4.5,0c0.3,0,0.6,0.3,0.6,0.6l0,0
				C542.3,359.6,542.1,359.9,541.8,359.9z"/>
		</g>
		<g>
			<path class="st0" d="M558,359.3c0,0.4-0.3,0.6-0.6,0.6l-4.5,0c-0.3,0-0.6-0.2-0.6-0.6c0-0.4,0.3-0.6,0.6-0.6l1.7,0l0-6.7l-1.7,0
				c-0.3,0-0.6-0.2-0.6-0.6c0-0.4,0.3-0.6,0.6-0.6l2.9,0l0,7.8l1.1,0"/>
			<path class="st0" d="M557.4,359.9l-4.5,0c-0.3,0-0.6-0.3-0.6-0.6l0,0c0-0.3,0.3-0.6,0.6-0.6l4.5,0c0.3,0,0.6,0.3,0.6,0.6l0,0
				C558,359.6,557.7,359.9,557.4,359.9z"/>
		</g>
		<g>
			<path class="st0" d="M516.4,350.7c0.7,0,1.2,0.5,1.2,1.2l0,6.8c0,0.7-0.5,1.2-1.2,1.2l-3.5,0c-0.7,0-1.2-0.5-1.2-1.2l0-6.8
				c0-0.7,0.5-1.2,1.2-1.2L516.4,350.7z M516.4,358.7l0-6.8l-3.5,0l0,6.8L516.4,358.7z"/>
		</g>
		<g>
			<path class="st0" d="M532.9,350.7c0.7,0,1.2,0.5,1.2,1.2l0,6.8c0,0.7-0.5,1.2-1.2,1.2l-3.5,0c-0.7,0-1.2-0.5-1.2-1.2l0-6.8
				c0-0.7,0.5-1.2,1.2-1.2L532.9,350.7z M532.9,358.7l0-6.8l-3.5,0l0,6.8L532.9,358.7z"/>
		</g>
		<g>
			<path class="st0" d="M549.1,350.7c0.7,0,1.2,0.5,1.2,1.2l0,6.8c0,0.7-0.5,1.2-1.2,1.2l-3.5,0c-0.7,0-1.2-0.5-1.2-1.2l0-6.8
				c0-0.7,0.5-1.2,1.2-1.2L549.1,350.7z M549.1,358.7l0-6.8l-3.5,0l0,6.8L549.1,358.7z"/>
		</g>
		<g>
			<path class="st0" d="M509.3,335.5c0,0.4-0.3,0.6-0.6,0.6l-4.5,0c-0.3,0-0.6-0.2-0.6-0.6c0-0.4,0.3-0.6,0.6-0.6l1.7,0l0-6.7
				l-1.7,0c-0.3,0-0.6-0.2-0.6-0.6c0-0.4,0.3-0.6,0.6-0.6l2.9,0l0,7.8l1.1,0"/>
			<path class="st0" d="M508.8,336.1l-4.5,0c-0.3,0-0.6-0.3-0.6-0.6l0,0c0-0.3,0.3-0.6,0.6-0.6l4.5,0c0.3,0,0.6,0.3,0.6,0.6l0,0
				C509.3,335.8,509.1,336.1,508.8,336.1z"/>
		</g>
		<g>
			<path class="st0" d="M525.9,335.5c0,0.4-0.3,0.6-0.6,0.6l-4.5,0c-0.3,0-0.6-0.2-0.6-0.6c0-0.4,0.3-0.6,0.6-0.6l1.7,0l0-6.7
				l-1.7,0c-0.3,0-0.6-0.2-0.6-0.6c0-0.4,0.3-0.6,0.6-0.6l2.9,0l0,7.8l1.1,0"/>
			<path class="st0" d="M525.3,336.1l-4.5,0c-0.3,0-0.6-0.3-0.6-0.6l0,0c0-0.3,0.3-0.6,0.6-0.6l4.5,0c0.3,0,0.6,0.3,0.6,0.6l0,0
				C525.9,335.8,525.6,336.1,525.3,336.1z"/>
		</g>
		<g>
			<path class="st0" d="M542.3,335.5c0,0.4-0.3,0.6-0.6,0.6l-4.5,0c-0.3,0-0.6-0.2-0.6-0.6c0-0.4,0.3-0.6,0.6-0.6l1.7,0l0-6.7
				l-1.7,0c-0.3,0-0.6-0.2-0.6-0.6c0-0.4,0.3-0.6,0.6-0.6l2.9,0l0,7.8l1.1,0"/>
			<path class="st0" d="M541.8,336.1l-4.5,0c-0.3,0-0.6-0.3-0.6-0.6l0,0c0-0.3,0.3-0.6,0.6-0.6l4.5,0c0.3,0,0.6,0.3,0.6,0.6l0,0
				C542.3,335.8,542.1,336.1,541.8,336.1z"/>
		</g>
		<g>
			<path class="st0" d="M558,335.5c0,0.4-0.3,0.6-0.6,0.6l-4.5,0c-0.3,0-0.6-0.2-0.6-0.6c0-0.4,0.3-0.6,0.6-0.6l1.7,0l0-6.7l-1.7,0
				c-0.3,0-0.6-0.2-0.6-0.6c0-0.4,0.3-0.6,0.6-0.6l2.9,0l0,7.8l1.1,0"/>
			<path class="st0" d="M557.4,336.1l-4.5,0c-0.3,0-0.6-0.3-0.6-0.6l0,0c0-0.3,0.3-0.6,0.6-0.6l4.5,0c0.3,0,0.6,0.3,0.6,0.6l0,0
				C558,335.8,557.7,336.1,557.4,336.1z"/>
		</g>
		<g>
			<path class="st0" d="M516.4,326.9c0.7,0,1.2,0.5,1.2,1.2l0,6.8c0,0.7-0.5,1.2-1.2,1.2l-3.5,0c-0.7,0-1.2-0.5-1.2-1.2l0-6.8
				c0-0.7,0.5-1.2,1.2-1.2L516.4,326.9z M516.4,334.9l0-6.8l-3.5,0l0,6.8L516.4,334.9z"/>
		</g>
		<g>
			<path class="st0" d="M532.9,326.9c0.7,0,1.2,0.5,1.2,1.2l0,6.8c0,0.7-0.5,1.2-1.2,1.2l-3.5,0c-0.7,0-1.2-0.5-1.2-1.2l0-6.8
				c0-0.7,0.5-1.2,1.2-1.2L532.9,326.9z M532.9,334.9l0-6.8l-3.5,0l0,6.8L532.9,334.9z"/>
		</g>
		<g>
			<path class="st0" d="M549.1,326.9c0.7,0,1.2,0.5,1.2,1.2l0,6.8c0,0.7-0.5,1.2-1.2,1.2l-3.5,0c-0.7,0-1.2-0.5-1.2-1.2l0-6.8
				c0-0.7,0.5-1.2,1.2-1.2L549.1,326.9z M549.1,334.9l0-6.8l-3.5,0l0,6.8L549.1,334.9z"/>
		</g>
		<g>
			<path class="st0" d="M509.3,312.8c0,0.4-0.3,0.6-0.6,0.6l-4.5,0c-0.3,0-0.6-0.2-0.6-0.6c0-0.4,0.3-0.6,0.6-0.6l1.7,0l0-6.7
				l-1.7,0c-0.3,0-0.6-0.2-0.6-0.6c0-0.4,0.3-0.6,0.6-0.6l2.9,0l0,7.8l1.1,0"/>
			<path class="st0" d="M508.8,313.4l-4.5,0c-0.3,0-0.6-0.3-0.6-0.6l0,0c0-0.3,0.3-0.6,0.6-0.6l4.5,0c0.3,0,0.6,0.3,0.6,0.6l0,0
				C509.3,313.1,509.1,313.4,508.8,313.4z"/>
		</g>
		<g>
			<path class="st0" d="M525.9,312.8c0,0.4-0.3,0.6-0.6,0.6l-4.5,0c-0.3,0-0.6-0.2-0.6-0.6c0-0.4,0.3-0.6,0.6-0.6l1.7,0l0-6.7
				l-1.7,0c-0.3,0-0.6-0.2-0.6-0.6c0-0.4,0.3-0.6,0.6-0.6l2.9,0l0,7.8l1.1,0"/>
			<path class="st0" d="M525.3,313.4l-4.5,0c-0.3,0-0.6-0.3-0.6-0.6l0,0c0-0.3,0.3-0.6,0.6-0.6l4.5,0c0.3,0,0.6,0.3,0.6,0.6l0,0
				C525.9,313.1,525.6,313.4,525.3,313.4z"/>
		</g>
		<g>
			<path class="st0" d="M542.3,312.8c0,0.4-0.3,0.6-0.6,0.6l-4.5,0c-0.3,0-0.6-0.2-0.6-0.6c0-0.4,0.3-0.6,0.6-0.6l1.7,0l0-6.7
				l-1.7,0c-0.3,0-0.6-0.2-0.6-0.6c0-0.4,0.3-0.6,0.6-0.6l2.9,0l0,7.8l1.1,0"/>
			<path class="st0" d="M541.8,313.4l-4.5,0c-0.3,0-0.6-0.3-0.6-0.6l0,0c0-0.3,0.3-0.6,0.6-0.6l4.5,0c0.3,0,0.6,0.3,0.6,0.6l0,0
				C542.3,313.1,542.1,313.4,541.8,313.4z"/>
		</g>
		<g>
			<path class="st0" d="M558,312.8c0,0.4-0.3,0.6-0.6,0.6l-4.5,0c-0.3,0-0.6-0.2-0.6-0.6c0-0.4,0.3-0.6,0.6-0.6l1.7,0l0-6.7l-1.7,0
				c-0.3,0-0.6-0.2-0.6-0.6c0-0.4,0.3-0.6,0.6-0.6l2.9,0l0,7.8l1.1,0"/>
			<path class="st0" d="M557.4,313.4l-4.5,0c-0.3,0-0.6-0.3-0.6-0.6l0,0c0-0.3,0.3-0.6,0.6-0.6l4.5,0c0.3,0,0.6,0.3,0.6,0.6l0,0
				C558,313.1,557.7,313.4,557.4,313.4z"/>
		</g>
		<g>
			<path class="st0" d="M516.4,304.1c0.7,0,1.2,0.5,1.2,1.2l0,6.8c0,0.7-0.5,1.2-1.2,1.2l-3.5,0c-0.7,0-1.2-0.5-1.2-1.2l0-6.8
				c0-0.7,0.5-1.2,1.2-1.2L516.4,304.1z M516.4,312.1l0-6.8l-3.5,0l0,6.8L516.4,312.1z"/>
		</g>
		<g>
			<path class="st0" d="M532.9,304.1c0.7,0,1.2,0.5,1.2,1.2l0,6.8c0,0.7-0.5,1.2-1.2,1.2l-3.5,0c-0.7,0-1.2-0.5-1.2-1.2l0-6.8
				c0-0.7,0.5-1.2,1.2-1.2L532.9,304.1z M532.9,312.1l0-6.8l-3.5,0l0,6.8L532.9,312.1z"/>
		</g>
		<g>
			<path class="st0" d="M549.1,304.1c0.7,0,1.2,0.5,1.2,1.2l0,6.8c0,0.7-0.5,1.2-1.2,1.2l-3.5,0c-0.7,0-1.2-0.5-1.2-1.2l0-6.8
				c0-0.7,0.5-1.2,1.2-1.2L549.1,304.1z M549.1,312.1l0-6.8l-3.5,0l0,6.8L549.1,312.1z"/>
		</g>
		<g>
			<path class="st0" d="M509.3,290.5c0,0.4-0.3,0.6-0.6,0.6l-4.5,0c-0.3,0-0.6-0.2-0.6-0.6c0-0.4,0.3-0.6,0.6-0.6l1.7,0l0-6.7
				l-1.7,0c-0.3,0-0.6-0.2-0.6-0.6c0-0.4,0.3-0.6,0.6-0.6l2.9,0l0,7.8l1.1,0"/>
			<path class="st0" d="M508.8,291.1l-4.5,0c-0.3,0-0.6-0.3-0.6-0.6l0,0c0-0.3,0.3-0.6,0.6-0.6l4.5,0c0.3,0,0.6,0.3,0.6,0.6l0,0
				C509.3,290.9,509.1,291.1,508.8,291.1z"/>
		</g>
		<g>
			<path class="st0" d="M525.9,290.5c0,0.4-0.3,0.6-0.6,0.6l-4.5,0c-0.3,0-0.6-0.2-0.6-0.6c0-0.4,0.3-0.6,0.6-0.6l1.7,0l0-6.7
				l-1.7,0c-0.3,0-0.6-0.2-0.6-0.6c0-0.4,0.3-0.6,0.6-0.6l2.9,0l0,7.8l1.1,0"/>
			<path class="st0" d="M525.3,291.1l-4.5,0c-0.3,0-0.6-0.3-0.6-0.6l0,0c0-0.3,0.3-0.6,0.6-0.6l4.5,0c0.3,0,0.6,0.3,0.6,0.6l0,0
				C525.9,290.9,525.6,291.1,525.3,291.1z"/>
		</g>
		<g>
			<path class="st0" d="M542.3,290.5c0,0.4-0.3,0.6-0.6,0.6l-4.5,0c-0.3,0-0.6-0.2-0.6-0.6c0-0.4,0.3-0.6,0.6-0.6l1.7,0l0-6.7
				l-1.7,0c-0.3,0-0.6-0.2-0.6-0.6c0-0.4,0.3-0.6,0.6-0.6l2.9,0l0,7.8l1.1,0"/>
			<path class="st0" d="M541.8,291.1l-4.5,0c-0.3,0-0.6-0.3-0.6-0.6l0,0c0-0.3,0.3-0.6,0.6-0.6l4.5,0c0.3,0,0.6,0.3,0.6,0.6l0,0
				C542.3,290.9,542.1,291.1,541.8,291.1z"/>
		</g>
		<g>
			<path class="st0" d="M558,290.5c0,0.4-0.3,0.6-0.6,0.6l-4.5,0c-0.3,0-0.6-0.2-0.6-0.6c0-0.4,0.3-0.6,0.6-0.6l1.7,0l0-6.7l-1.7,0
				c-0.3,0-0.6-0.2-0.6-0.6c0-0.4,0.3-0.6,0.6-0.6l2.9,0l0,7.8l1.1,0"/>
			<path class="st0" d="M557.4,291.1l-4.5,0c-0.3,0-0.6-0.3-0.6-0.6l0,0c0-0.3,0.3-0.6,0.6-0.6l4.5,0c0.3,0,0.6,0.3,0.6,0.6l0,0
				C558,290.9,557.7,291.1,557.4,291.1z"/>
		</g>
		<g>
			<path class="st0" d="M516.4,281.9c0.7,0,1.2,0.5,1.2,1.2l0,6.8c0,0.7-0.5,1.2-1.2,1.2l-3.5,0c-0.7,0-1.2-0.5-1.2-1.2l0-6.8
				c0-0.7,0.5-1.2,1.2-1.2L516.4,281.9z M516.4,289.9l0-6.8l-3.5,0l0,6.8L516.4,289.9z"/>
		</g>
		<g>
			<path class="st0" d="M532.9,281.9c0.7,0,1.2,0.5,1.2,1.2l0,6.8c0,0.7-0.5,1.2-1.2,1.2l-3.5,0c-0.7,0-1.2-0.5-1.2-1.2l0-6.8
				c0-0.7,0.5-1.2,1.2-1.2L532.9,281.9z M532.9,289.9l0-6.8l-3.5,0l0,6.8L532.9,289.9z"/>
		</g>
		<g>
			<path class="st0" d="M549.1,281.9c0.7,0,1.2,0.5,1.2,1.2l0,6.8c0,0.7-0.5,1.2-1.2,1.2l-3.5,0c-0.7,0-1.2-0.5-1.2-1.2l0-6.8
				c0-0.7,0.5-1.2,1.2-1.2L549.1,281.9z M549.1,289.9l0-6.8l-3.5,0l0,6.8L549.1,289.9z"/>
		</g>
		<g>
			<path class="st0" d="M509.3,267.4c0,0.4-0.3,0.6-0.6,0.6l-4.5,0c-0.3,0-0.6-0.2-0.6-0.6c0-0.4,0.3-0.6,0.6-0.6l1.7,0l0-6.7
				l-1.7,0c-0.3,0-0.6-0.2-0.6-0.6c0-0.4,0.3-0.6,0.6-0.6l2.9,0l0,7.8l1.1,0"/>
			<path class="st0" d="M508.8,268l-4.5,0c-0.3,0-0.6-0.3-0.6-0.6v0c0-0.3,0.3-0.6,0.6-0.6l4.5,0c0.3,0,0.6,0.3,0.6,0.6l0,0
				C509.3,267.7,509.1,268,508.8,268z"/>
		</g>
		<g>
			<path class="st0" d="M525.9,267.4c0,0.4-0.3,0.6-0.6,0.6l-4.5,0c-0.3,0-0.6-0.2-0.6-0.6c0-0.4,0.3-0.6,0.6-0.6l1.7,0l0-6.7
				l-1.7,0c-0.3,0-0.6-0.2-0.6-0.6s0.3-0.6,0.6-0.6l2.9,0l0,7.8l1.1,0"/>
			<path class="st0" d="M525.3,268l-4.5,0c-0.3,0-0.6-0.3-0.6-0.6v0c0-0.3,0.3-0.6,0.6-0.6l4.5,0c0.3,0,0.6,0.3,0.6,0.6l0,0
				C525.9,267.7,525.6,268,525.3,268z"/>
		</g>
		<g>
			<path class="st0" d="M542.3,267.4c0,0.4-0.3,0.6-0.6,0.6l-4.5,0c-0.3,0-0.6-0.2-0.6-0.6c0-0.4,0.3-0.6,0.6-0.6l1.7,0l0-6.7
				l-1.7,0c-0.3,0-0.6-0.2-0.6-0.6s0.3-0.6,0.6-0.6l2.9,0l0,7.8l1.1,0"/>
			<path class="st0" d="M541.8,268l-4.5,0c-0.3,0-0.6-0.3-0.6-0.6v0c0-0.3,0.3-0.6,0.6-0.6l4.5,0c0.3,0,0.6,0.3,0.6,0.6l0,0
				C542.3,267.7,542.1,268,541.8,268z"/>
		</g>
		<g>
			<path class="st0" d="M558,267.4c0,0.4-0.3,0.6-0.6,0.6l-4.5,0c-0.3,0-0.6-0.2-0.6-0.6c0-0.4,0.3-0.6,0.6-0.6l1.7,0l0-6.7l-1.7,0
				c-0.3,0-0.6-0.2-0.6-0.6s0.3-0.6,0.6-0.6l2.9,0l0,7.8l1.1,0"/>
			<path class="st0" d="M557.4,268l-4.5,0c-0.3,0-0.6-0.3-0.6-0.6v0c0-0.3,0.3-0.6,0.6-0.6l4.5,0c0.3,0,0.6,0.3,0.6,0.6l0,0
				C558,267.7,557.7,268,557.4,268z"/>
		</g>
		<g>
			<path class="st0" d="M516.4,258.7c0.7,0,1.2,0.5,1.2,1.2l0,6.8c0,0.7-0.5,1.2-1.2,1.2l-3.5,0c-0.7,0-1.2-0.5-1.2-1.2l0-6.8
				c0-0.7,0.5-1.2,1.2-1.2L516.4,258.7z M516.4,266.8l0-6.8l-3.5,0l0,6.8L516.4,266.8z"/>
		</g>
		<g>
			<path class="st0" d="M532.9,258.7c0.7,0,1.2,0.5,1.2,1.2l0,6.8c0,0.7-0.5,1.2-1.2,1.2l-3.5,0c-0.7,0-1.2-0.5-1.2-1.2l0-6.8
				c0-0.7,0.5-1.2,1.2-1.2L532.9,258.7z M532.9,266.8l0-6.8l-3.5,0l0,6.8L532.9,266.8z"/>
		</g>
		<g>
			<path class="st0" d="M549.1,258.7c0.7,0,1.2,0.5,1.2,1.2l0,6.8c0,0.7-0.5,1.2-1.2,1.2l-3.5,0c-0.7,0-1.2-0.5-1.2-1.2l0-6.8
				c0-0.7,0.5-1.2,1.2-1.2L549.1,258.7z M549.1,266.8l0-6.8l-3.5,0l0,6.8L549.1,266.8z"/>
		</g>
		<g>
			<path class="st0" d="M517.4,347.5c0,0.4-0.3,0.6-0.6,0.6l-4.5,0c-0.3,0-0.6-0.2-0.6-0.6c0-0.4,0.3-0.6,0.6-0.6l1.7,0l0-6.7
				l-1.7,0c-0.3,0-0.6-0.2-0.6-0.6c0-0.4,0.3-0.6,0.6-0.6l2.9,0l0,7.8l1.1,0"/>
			<path class="st0" d="M516.9,348.1l-4.5,0c-0.3,0-0.6-0.3-0.6-0.6l0,0c0-0.3,0.3-0.6,0.6-0.6l4.5,0c0.3,0,0.6,0.3,0.6,0.6l0,0
				C517.4,347.8,517.2,348.1,516.9,348.1z"/>
		</g>
		<g>
			<path class="st0" d="M534,347.5c0,0.4-0.3,0.6-0.6,0.6l-4.5,0c-0.3,0-0.6-0.2-0.6-0.6c0-0.4,0.3-0.6,0.6-0.6l1.7,0l0-6.7l-1.7,0
				c-0.3,0-0.6-0.2-0.6-0.6c0-0.4,0.3-0.6,0.6-0.6l2.9,0l0,7.8l1.1,0"/>
			<path class="st0" d="M533.4,348.1l-4.5,0c-0.3,0-0.6-0.3-0.6-0.6l0,0c0-0.3,0.3-0.6,0.6-0.6l4.5,0c0.3,0,0.6,0.3,0.6,0.6l0,0
				C534,347.8,533.7,348.1,533.4,348.1z"/>
		</g>
		<g>
			<path class="st0" d="M550.4,347.5c0,0.4-0.3,0.6-0.6,0.6l-4.5,0c-0.3,0-0.6-0.2-0.6-0.6c0-0.4,0.3-0.6,0.6-0.6l1.7,0l0-6.7
				l-1.7,0c-0.3,0-0.6-0.2-0.6-0.6c0-0.4,0.3-0.6,0.6-0.6l2.9,0l0,7.8l1.1,0"/>
			<path class="st0" d="M549.9,348.1l-4.5,0c-0.3,0-0.6-0.3-0.6-0.6l0,0c0-0.3,0.3-0.6,0.6-0.6l4.5,0c0.3,0,0.6,0.3,0.6,0.6l0,0
				C550.4,347.8,550.2,348.1,549.9,348.1z"/>
		</g>
		<g>
			<path class="st0" d="M524.5,338.9c0.7,0,1.2,0.5,1.2,1.2l0,6.8c0,0.7-0.5,1.2-1.2,1.2l-3.5,0c-0.7,0-1.2-0.5-1.2-1.2l0-6.8
				c0-0.7,0.5-1.2,1.2-1.2L524.5,338.9z M524.5,346.9l0-6.8l-3.5,0l0,6.8L524.5,346.9z"/>
		</g>
		<g>
			<path class="st0" d="M541,338.9c0.7,0,1.2,0.5,1.2,1.2l0,6.8c0,0.7-0.5,1.2-1.2,1.2l-3.5,0c-0.7,0-1.2-0.5-1.2-1.2l0-6.8
				c0-0.7,0.5-1.2,1.2-1.2L541,338.9z M541,346.9l0-6.8l-3.5,0l0,6.8L541,346.9z"/>
		</g>
		<g>
			<path class="st0" d="M557.2,338.9c0.7,0,1.2,0.5,1.2,1.2l0,6.8c0,0.7-0.5,1.2-1.2,1.2l-3.5,0c-0.7,0-1.2-0.5-1.2-1.2l0-6.8
				c0-0.7,0.5-1.2,1.2-1.2L557.2,338.9z M557.2,346.9l0-6.8l-3.5,0l0,6.8L557.2,346.9z"/>
		</g>
		<g>
			<path class="st0" d="M508.3,338.9c0.7,0,1.2,0.5,1.2,1.2l0,6.8c0,0.7-0.5,1.2-1.2,1.2l-3.5,0c-0.7,0-1.2-0.5-1.2-1.2l0-6.8
				c0-0.7,0.5-1.2,1.2-1.2L508.3,338.9z M508.3,346.9l0-6.8l-3.5,0l0,6.8L508.3,346.9z"/>
		</g>
		<g>
			<path class="st0" d="M517.4,324c0,0.4-0.3,0.6-0.6,0.6l-4.5,0c-0.3,0-0.6-0.2-0.6-0.6c0-0.4,0.3-0.6,0.6-0.6l1.7,0l0-6.7l-1.7,0
				c-0.3,0-0.6-0.2-0.6-0.6c0-0.4,0.3-0.6,0.6-0.6l2.9,0l0,7.8l1.1,0"/>
			<path class="st0" d="M516.9,324.6l-4.5,0c-0.3,0-0.6-0.3-0.6-0.6l0,0c0-0.3,0.3-0.6,0.6-0.6l4.5,0c0.3,0,0.6,0.3,0.6,0.6l0,0
				C517.4,324.3,517.2,324.6,516.9,324.6z"/>
		</g>
		<g>
			<path class="st0" d="M534,324c0,0.4-0.3,0.6-0.6,0.6l-4.5,0c-0.3,0-0.6-0.2-0.6-0.6c0-0.4,0.3-0.6,0.6-0.6l1.7,0l0-6.7l-1.7,0
				c-0.3,0-0.6-0.2-0.6-0.6c0-0.4,0.3-0.6,0.6-0.6l2.9,0l0,7.8l1.1,0"/>
			<path class="st0" d="M533.4,324.6l-4.5,0c-0.3,0-0.6-0.3-0.6-0.6l0,0c0-0.3,0.3-0.6,0.6-0.6l4.5,0c0.3,0,0.6,0.3,0.6,0.6l0,0
				C534,324.3,533.7,324.6,533.4,324.6z"/>
		</g>
		<g>
			<path class="st0" d="M550.4,324c0,0.4-0.3,0.6-0.6,0.6l-4.5,0c-0.3,0-0.6-0.2-0.6-0.6c0-0.4,0.3-0.6,0.6-0.6l1.7,0l0-6.7l-1.7,0
				c-0.3,0-0.6-0.2-0.6-0.6c0-0.4,0.3-0.6,0.6-0.6l2.9,0l0,7.8l1.1,0"/>
			<path class="st0" d="M549.9,324.6l-4.5,0c-0.3,0-0.6-0.3-0.6-0.6l0,0c0-0.3,0.3-0.6,0.6-0.6l4.5,0c0.3,0,0.6,0.3,0.6,0.6l0,0
				C550.4,324.3,550.2,324.6,549.9,324.6z"/>
		</g>
		<g>
			<path class="st0" d="M524.5,315.4c0.7,0,1.2,0.5,1.2,1.2l0,6.8c0,0.7-0.5,1.2-1.2,1.2l-3.5,0c-0.7,0-1.2-0.5-1.2-1.2l0-6.8
				c0-0.7,0.5-1.2,1.2-1.2L524.5,315.4z M524.5,323.4l0-6.8l-3.5,0l0,6.8L524.5,323.4z"/>
		</g>
		<g>
			<path class="st0" d="M541,315.4c0.7,0,1.2,0.5,1.2,1.2l0,6.8c0,0.7-0.5,1.2-1.2,1.2l-3.5,0c-0.7,0-1.2-0.5-1.2-1.2l0-6.8
				c0-0.7,0.5-1.2,1.2-1.2L541,315.4z M541,323.4l0-6.8l-3.5,0l0,6.8L541,323.4z"/>
		</g>
		<g>
			<path class="st0" d="M557.2,315.4c0.7,0,1.2,0.5,1.2,1.2l0,6.8c0,0.7-0.5,1.2-1.2,1.2l-3.5,0c-0.7,0-1.2-0.5-1.2-1.2l0-6.8
				c0-0.7,0.5-1.2,1.2-1.2L557.2,315.4z M557.2,323.4l0-6.8l-3.5,0l0,6.8L557.2,323.4z"/>
		</g>
		<g>
			<path class="st0" d="M508.3,315.4c0.7,0,1.2,0.5,1.2,1.2l0,6.8c0,0.7-0.5,1.2-1.2,1.2l-3.5,0c-0.7,0-1.2-0.5-1.2-1.2l0-6.8
				c0-0.7,0.5-1.2,1.2-1.2L508.3,315.4z M508.3,323.4l0-6.8l-3.5,0l0,6.8L508.3,323.4z"/>
		</g>
		<g>
			<path class="st0" d="M517.4,301.8c0,0.4-0.3,0.6-0.6,0.6l-4.5,0c-0.3,0-0.6-0.2-0.6-0.6c0-0.4,0.3-0.6,0.6-0.6l1.7,0l0-6.7
				l-1.7,0c-0.3,0-0.6-0.2-0.6-0.6c0-0.4,0.3-0.6,0.6-0.6l2.9,0l0,7.8l1.1,0"/>
			<path class="st0" d="M516.9,302.3l-4.5,0c-0.3,0-0.6-0.3-0.6-0.6l0,0c0-0.3,0.3-0.6,0.6-0.6l4.5,0c0.3,0,0.6,0.3,0.6,0.6v0
				C517.4,302.1,517.2,302.4,516.9,302.3z"/>
		</g>
		<g>
			<path class="st0" d="M534,301.8c0,0.4-0.3,0.6-0.6,0.6l-4.5,0c-0.3,0-0.6-0.2-0.6-0.6c0-0.4,0.3-0.6,0.6-0.6l1.7,0l0-6.7l-1.7,0
				c-0.3,0-0.6-0.2-0.6-0.6c0-0.4,0.3-0.6,0.6-0.6l2.9,0l0,7.8l1.1,0"/>
			<path class="st0" d="M533.4,302.3l-4.5,0c-0.3,0-0.6-0.3-0.6-0.6l0,0c0-0.3,0.3-0.6,0.6-0.6l4.5,0c0.3,0,0.6,0.3,0.6,0.6v0
				C534,302.1,533.7,302.4,533.4,302.3z"/>
		</g>
		<g>
			<path class="st0" d="M550.4,301.8c0,0.4-0.3,0.6-0.6,0.6l-4.5,0c-0.3,0-0.6-0.2-0.6-0.6c0-0.4,0.3-0.6,0.6-0.6l1.7,0l0-6.7
				l-1.7,0c-0.3,0-0.6-0.2-0.6-0.6c0-0.4,0.3-0.6,0.6-0.6l2.9,0l0,7.8l1.1,0"/>
			<path class="st0" d="M549.9,302.3l-4.5,0c-0.3,0-0.6-0.3-0.6-0.6l0,0c0-0.3,0.3-0.6,0.6-0.6l4.5,0c0.3,0,0.6,0.3,0.6,0.6v0
				C550.4,302.1,550.2,302.4,549.9,302.3z"/>
		</g>
		<g>
			<path class="st0" d="M524.5,293.1c0.7,0,1.2,0.5,1.2,1.2l0,6.8c0,0.7-0.5,1.2-1.2,1.2l-3.5,0c-0.7,0-1.2-0.5-1.2-1.2l0-6.8
				c0-0.7,0.5-1.2,1.2-1.2L524.5,293.1z M524.5,301.1l0-6.8l-3.5,0l0,6.8L524.5,301.1z"/>
		</g>
		<g>
			<path class="st0" d="M541,293.1c0.7,0,1.2,0.5,1.2,1.2l0,6.8c0,0.7-0.5,1.2-1.2,1.2l-3.5,0c-0.7,0-1.2-0.5-1.2-1.2l0-6.8
				c0-0.7,0.5-1.2,1.2-1.2L541,293.1z M541,301.1l0-6.8l-3.5,0l0,6.8L541,301.1z"/>
		</g>
		<g>
			<path class="st0" d="M557.2,293.1c0.7,0,1.2,0.5,1.2,1.2l0,6.8c0,0.7-0.5,1.2-1.2,1.2l-3.5,0c-0.7,0-1.2-0.5-1.2-1.2l0-6.8
				c0-0.7,0.5-1.2,1.2-1.2L557.2,293.1z M557.2,301.1l0-6.8l-3.5,0l0,6.8L557.2,301.1z"/>
		</g>
		<g>
			<path class="st0" d="M508.3,293.1c0.7,0,1.2,0.5,1.2,1.2l0,6.8c0,0.7-0.5,1.2-1.2,1.2l-3.5,0c-0.7,0-1.2-0.5-1.2-1.2l0-6.8
				c0-0.7,0.5-1.2,1.2-1.2L508.3,293.1z M508.3,301.1l0-6.8l-3.5,0l0,6.8L508.3,301.1z"/>
		</g>
		<g>
			<path class="st0" d="M517.4,279.1c0,0.4-0.3,0.6-0.6,0.6l-4.5,0c-0.3,0-0.6-0.2-0.6-0.6c0-0.4,0.3-0.6,0.6-0.6l1.7,0l0-6.7
				l-1.7,0c-0.3,0-0.6-0.2-0.6-0.6c0-0.4,0.3-0.6,0.6-0.6l2.9,0l0,7.8l1.1,0"/>
			<path class="st0" d="M516.9,279.7l-4.5,0c-0.3,0-0.6-0.3-0.6-0.6l0,0c0-0.3,0.3-0.6,0.6-0.6l4.5,0c0.3,0,0.6,0.3,0.6,0.6l0,0
				C517.4,279.4,517.2,279.7,516.9,279.7z"/>
		</g>
		<g>
			<path class="st0" d="M534,279.1c0,0.4-0.3,0.6-0.6,0.6l-4.5,0c-0.3,0-0.6-0.2-0.6-0.6c0-0.4,0.3-0.6,0.6-0.6l1.7,0l0-6.7l-1.7,0
				c-0.3,0-0.6-0.2-0.6-0.6c0-0.4,0.3-0.6,0.6-0.6l2.9,0l0,7.8l1.1,0"/>
			<path class="st0" d="M533.4,279.7l-4.5,0c-0.3,0-0.6-0.3-0.6-0.6l0,0c0-0.3,0.3-0.6,0.6-0.6l4.5,0c0.3,0,0.6,0.3,0.6,0.6l0,0
				C534,279.4,533.7,279.7,533.4,279.7z"/>
		</g>
		<g>
			<path class="st0" d="M550.4,279.1c0,0.4-0.3,0.6-0.6,0.6l-4.5,0c-0.3,0-0.6-0.2-0.6-0.6c0-0.4,0.3-0.6,0.6-0.6l1.7,0l0-6.7
				l-1.7,0c-0.3,0-0.6-0.2-0.6-0.6c0-0.4,0.3-0.6,0.6-0.6l2.9,0l0,7.8l1.1,0"/>
			<path class="st0" d="M549.9,279.7l-4.5,0c-0.3,0-0.6-0.3-0.6-0.6l0,0c0-0.3,0.3-0.6,0.6-0.6l4.5,0c0.3,0,0.6,0.3,0.6,0.6l0,0
				C550.4,279.4,550.2,279.7,549.9,279.7z"/>
		</g>
		<g>
			<path class="st0" d="M524.5,270.4c0.7,0,1.2,0.5,1.2,1.2l0,6.8c0,0.7-0.5,1.2-1.2,1.2l-3.5,0c-0.7,0-1.2-0.5-1.2-1.2l0-6.8
				c0-0.7,0.5-1.2,1.2-1.2L524.5,270.4z M524.5,278.4l0-6.8l-3.5,0l0,6.8L524.5,278.4z"/>
		</g>
		<g>
			<path class="st0" d="M541,270.4c0.7,0,1.2,0.5,1.2,1.2l0,6.8c0,0.7-0.5,1.2-1.2,1.2l-3.5,0c-0.7,0-1.2-0.5-1.2-1.2l0-6.8
				c0-0.7,0.5-1.2,1.2-1.2L541,270.4z M541,278.4l0-6.8l-3.5,0l0,6.8L541,278.4z"/>
		</g>
		<g>
			<path class="st0" d="M557.2,270.4c0.7,0,1.2,0.5,1.2,1.2l0,6.8c0,0.7-0.5,1.2-1.2,1.2l-3.5,0c-0.7,0-1.2-0.5-1.2-1.2l0-6.8
				c0-0.7,0.5-1.2,1.2-1.2L557.2,270.4z M557.2,278.4l0-6.8l-3.5,0l0,6.8L557.2,278.4z"/>
		</g>
		<g>
			<path class="st0" d="M508.3,270.4c0.7,0,1.2,0.5,1.2,1.2l0,6.8c0,0.7-0.5,1.2-1.2,1.2l-3.5,0c-0.7,0-1.2-0.5-1.2-1.2l0-6.8
				c0-0.7,0.5-1.2,1.2-1.2L508.3,270.4z M508.3,278.4l0-6.8l-3.5,0l0,6.8L508.3,278.4z"/>
		</g>
	</g>
	<g>
		<path class="st0" d="M517.4,256.1c0,0.4-0.3,0.6-0.6,0.6l-4.5,0c-0.3,0-0.6-0.2-0.6-0.6c0-0.4,0.3-0.6,0.6-0.6l1.7,0l0-6.7l-1.7,0
			c-0.3,0-0.6-0.2-0.6-0.6c0-0.4,0.3-0.6,0.6-0.6l2.9,0l0,7.8l1.1,0"/>
		<path class="st0" d="M516.9,256.6l-4.5,0c-0.3,0-0.6-0.3-0.6-0.6l0,0c0-0.3,0.3-0.6,0.6-0.6l4.5,0c0.3,0,0.6,0.3,0.6,0.6l0,0
			C517.4,256.4,517.2,256.6,516.9,256.6z"/>
	</g>
	<g>
		<path class="st0" d="M509.3,244.7c0,0.4-0.3,0.6-0.6,0.6l-4.5,0c-0.3,0-0.6-0.2-0.6-0.6c0-0.4,0.3-0.6,0.6-0.6l1.7,0l0-6.7l-1.7,0
			c-0.3,0-0.6-0.2-0.6-0.6c0-0.4,0.3-0.6,0.6-0.6l2.9,0l0,7.8l1.1,0"/>
		<path class="st0" d="M508.8,245.3l-4.5,0c-0.3,0-0.6-0.3-0.6-0.6l0,0c0-0.3,0.3-0.6,0.6-0.6l4.5,0c0.3,0,0.6,0.3,0.6,0.6l0,0
			C509.3,245.1,509.1,245.3,508.8,245.3z"/>
	</g>
	<g>
		<path class="st0" d="M534,256.1c0,0.4-0.3,0.6-0.6,0.6l-4.5,0c-0.3,0-0.6-0.2-0.6-0.6c0-0.4,0.3-0.6,0.6-0.6l1.7,0l0-6.7l-1.7,0
			c-0.3,0-0.6-0.2-0.6-0.6c0-0.4,0.3-0.6,0.6-0.6l2.9,0l0,7.8l1.1,0"/>
		<path class="st0" d="M533.4,256.6l-4.5,0c-0.3,0-0.6-0.3-0.6-0.6l0,0c0-0.3,0.3-0.6,0.6-0.6l4.5,0c0.3,0,0.6,0.3,0.6,0.6l0,0
			C534,256.4,533.7,256.6,533.4,256.6z"/>
	</g>
	<g>
		<path class="st0" d="M550.4,256.1c0,0.4-0.3,0.6-0.6,0.6l-4.5,0c-0.3,0-0.6-0.2-0.6-0.6c0-0.4,0.3-0.6,0.6-0.6l1.7,0l0-6.7l-1.7,0
			c-0.3,0-0.6-0.2-0.6-0.6c0-0.4,0.3-0.6,0.6-0.6l2.9,0l0,7.8l1.1,0"/>
		<path class="st0" d="M549.9,256.6l-4.5,0c-0.3,0-0.6-0.3-0.6-0.6l0,0c0-0.3,0.3-0.6,0.6-0.6l4.5,0c0.3,0,0.6,0.3,0.6,0.6l0,0
			C550.4,256.4,550.2,256.6,549.9,256.6z"/>
	</g>
	<g>
		<path class="st0" d="M524.5,247.4c0.7,0,1.2,0.5,1.2,1.2l0,6.8c0,0.7-0.5,1.2-1.2,1.2l-3.5,0c-0.7,0-1.2-0.5-1.2-1.2l0-6.8
			c0-0.7,0.5-1.2,1.2-1.2L524.5,247.4z M524.5,255.4l0-6.8l-3.5,0l0,6.8L524.5,255.4z"/>
	</g>
	<g>
		<path class="st0" d="M541,247.4c0.7,0,1.2,0.5,1.2,1.2l0,6.8c0,0.7-0.5,1.2-1.2,1.2l-3.5,0c-0.7,0-1.2-0.5-1.2-1.2l0-6.8
			c0-0.7,0.5-1.2,1.2-1.2L541,247.4z M541,255.4l0-6.8l-3.5,0l0,6.8L541,255.4z"/>
	</g>
	<g>
		<path class="st0" d="M508.3,247.4c0.7,0,1.2,0.5,1.2,1.2l0,6.8c0,0.7-0.5,1.2-1.2,1.2l-3.5,0c-0.7,0-1.2-0.5-1.2-1.2l0-6.8
			c0-0.7,0.5-1.2,1.2-1.2L508.3,247.4z M508.3,255.4l0-6.8l-3.5,0l0,6.8L508.3,255.4z"/>
	</g>
	<g>
		<path class="st1" d="M349.5,832.5c0,0,22-52,103.2-73.5s69.6-69,69.6-69l72.6-13c0,0-15.5,47.5,74.5,61.5s92,86,92,86
			S476,910,349.5,832.5z"/>
		<g>
			<polygon class="st2" points="429,468.2 460,555.8 476.4,551.4 446.1,468.1 			"/>
			<polygon class="st3" points="503.6,449.8 446.1,468.1 476.4,551.4 533.3,530.6 			"/>
			<polygon class="st4" points="429,468.2 486.7,449.8 503.6,449.8 446.1,468.1 			"/>
		</g>
		<g>
			<polygon class="st2" points="455.7,481.4 483.5,560.2 498.3,556.2 471.1,481.3 			"/>
			<polygon class="st3" points="522.8,464.9 471.1,481.3 498.3,556.2 549.4,537.5 			"/>
			<polygon class="st4" points="455.7,481.4 507.5,464.8 522.8,464.9 471.1,481.3 			"/>
			<g>
				<path class="st5" d="M494.7,494.4c-1.1-3.4,0.1-6.1,2.9-7.1c1.3-0.4,2.5-0.2,3.3,0.3l-0.5,1.1c-0.7-0.4-1.6-0.5-2.4-0.2
					c-2,0.7-2.8,2.7-1.9,5.4c0.9,2.6,2.8,3.9,4.8,3.2c1-0.3,1.6-1,2-2l1,0.6c-0.5,1.2-1.3,2.2-2.7,2.6
					C498.5,499.1,495.8,497.8,494.7,494.4z"/>
				<path class="st5" d="M505,492l6.6-2.2l0.3,0.9l-6.6,2.2L505,492z M504.2,488.6l6.6-2.2l0.3,0.9l-6.6,2.2L504.2,488.6z
					 M505,485.1l0.8-0.3l2.3,10.9l-0.9,0.3L505,485.1z M508,484.1l0.8-0.3l2.3,10.9l-0.9,0.3L508,484.1z"/>
			</g>
			<polygon class="st6" points="471.1,481.3 460.4,481.3 511.9,464.8 522.8,464.9 			"/>
		</g>
		<path class="st7" d="M436.6,522.1c0,0,8.1,109.9,42,147c21,23,56.3,30.7,75,29.2c31-2.5,63.5-19.2,71-63.2c8.5-49.6-2-131-3-133
			S560.6,532.1,436.6,522.1z"/>
		<g>
			<g>
				<circle class="st5" cx="586.7" cy="580.3" r="17.3"/>
				<path class="st8" d="M569.6,582.9c-1-6.6,1.9-13.4,7.9-17.2c8.1-5.1,18.7-2.6,23.8,5.4c3.7,6,3.4,13.3-0.3,18.8L569.6,582.9z"/>
			</g>
			<polygon class="st5" points="587,581.4 578.9,589 589.6,592.2 			"/>
		</g>
		<g>
			<g>
				<circle class="st5" cx="505.1" cy="589.9" r="17.3"/>
				<path class="st8" d="M488,592.5c-1-6.6,1.9-13.4,7.9-17.2c8.1-5.1,18.7-2.6,23.8,5.4c3.7,6,3.4,13.3-0.3,18.8L488,592.5z"/>
			</g>
			<polygon class="st5" points="505.4,591 497.3,598.6 507.9,601.8 			"/>
		</g>
		<path class="st1" d="M531.8,627.6c-2.5-3.6,7-47.2,14.3-48.4c7.3-1.2,29.3,38,29.3,40.8c0,5.4-8.1,7.7-10.7,9c-2,1-2.2,5-7.6,6.2
			c-4.5,1-7.4-1.9-11.4-3.2S535.3,632.6,531.8,627.6z"/>
		<g>
			<path class="st7" d="M627.2,561.1c0,0,15.5-22.5,27-14.5s6,33,0,42.5s-23.9,33-30,33C620.9,622.1,627.2,561.1,627.2,561.1z"/>
			<path class="st1" d="M659.2,576.8c5.2-21.6-1.5-29.8-6.6-31.1c-1.3-0.3-9-4.1-19.8,8.7c-3.1,3.6-4.6,4.8-5.5,6.7
				c-4,8.4-2.8,27.8-2.8,32.6c12.1-26.1,31.9-48.3,33.8-33.6C658.7,563.4,659.2,576.8,659.2,576.8z"/>
		</g>
		<g>
			<path class="st7" d="M448.2,584.2c0,0-19.9-18.7-29.5-8.4s1.1,33.5,9,41.5c7.9,8,30.4,27.2,36.3,25.9
				C467.4,642.4,448.2,584.2,448.2,584.2z"/>
			<path class="st1" d="M420.4,606.3c-9.7-20-4.8-29.5-0.1-31.8c1.2-0.6,8-5.9,21.2,4.3c3.8,2.9,5.5,3.7,6.8,5.4
				c5.7,7.4,8.6,26.6,9.7,31.3c-17.4-23-41.4-40.4-40.2-25.7C418,593.1,420.4,606.3,420.4,606.3z"/>
		</g>
		<path class="st9" d="M529,654.9c25.3,12.1,64.2-0.9,66-30.3"/>
		<path class="st8" d="M452.4,594.6c0,0-21.6-19.6-21.9-44.4s-1-33.8,1.2-32s8.9,4.7,10.9,7.3C455.7,542.7,452.4,594.6,452.4,594.6z
			"/>
		<path class="st8" d="M613.3,499.5c0,0,11.9,64.5,9.9,70c-2,5.5,17.8-14.6,18.8-26.6c1.6-19.2-2.1-67-11.1-62.5
			C625.8,483.1,613.3,499.5,613.3,499.5z"/>
		<g>
			<path class="st10" d="M630,482.8c0,0-5.5-85.6-153.6-77.6l37.6-41.3c0,0,116.3-7.2,128.5,67.9"/>
			<g>
				<g>
					<path class="st0" d="M509.3,404.9c0,0.4-0.3,0.6-0.6,0.6l-4.5,0c-0.3,0-0.6-0.2-0.6-0.6c0-0.4,0.3-0.6,0.6-0.6l1.7,0l0-6.7
						l-1.7,0c-0.3,0-0.6-0.2-0.6-0.6c0-0.4,0.3-0.6,0.6-0.6l2.9,0l0,7.8l1.1,0"/>
					<path class="st0" d="M508.8,405.5l-4.5,0c-0.3,0-0.6-0.3-0.6-0.6v0c0-0.3,0.3-0.6,0.6-0.6l4.5,0c0.3,0,0.6,0.3,0.6,0.6l0,0
						C509.3,405.2,509.1,405.5,508.8,405.5z"/>
				</g>
				<g>
					<path class="st0" d="M525.9,404.9c0,0.4-0.3,0.6-0.6,0.6l-4.5,0c-0.3,0-0.6-0.2-0.6-0.6c0-0.4,0.3-0.6,0.6-0.6l1.7,0l0-6.7
						l-1.7,0c-0.3,0-0.6-0.2-0.6-0.6s0.3-0.6,0.6-0.6l2.9,0l0,7.8l1.1,0"/>
					<path class="st0" d="M525.3,405.5l-4.5,0c-0.3,0-0.6-0.3-0.6-0.6v0c0-0.3,0.3-0.6,0.6-0.6l4.5,0c0.3,0,0.6,0.3,0.6,0.6l0,0
						C525.9,405.2,525.6,405.5,525.3,405.5z"/>
				</g>
				<g>
					<path class="st0" d="M542.3,404.9c0,0.4-0.3,0.6-0.6,0.6l-4.5,0c-0.3,0-0.6-0.2-0.6-0.6c0-0.4,0.3-0.6,0.6-0.6l1.7,0l0-6.7
						l-1.7,0c-0.3,0-0.6-0.2-0.6-0.6s0.3-0.6,0.6-0.6l2.9,0l0,7.8l1.1,0"/>
					<path class="st0" d="M541.8,405.5l-4.5,0c-0.3,0-0.6-0.3-0.6-0.6v0c0-0.3,0.3-0.6,0.6-0.6l4.5,0c0.3,0,0.6,0.3,0.6,0.6l0,0
						C542.3,405.2,542.1,405.5,541.8,405.5z"/>
				</g>
				<g>
					<path class="st0" d="M558,404.9c0,0.4-0.3,0.6-0.6,0.6l-4.5,0c-0.3,0-0.6-0.2-0.6-0.6c0-0.4,0.3-0.6,0.6-0.6l1.7,0l0-6.7
						l-1.7,0c-0.3,0-0.6-0.2-0.6-0.6s0.3-0.6,0.6-0.6l2.9,0l0,7.8l1.1,0"/>
					<path class="st0" d="M557.4,405.5l-4.5,0c-0.3,0-0.6-0.3-0.6-0.6v0c0-0.3,0.3-0.6,0.6-0.6l4.5,0c0.3,0,0.6,0.3,0.6,0.6l0,0
						C558,405.2,557.7,405.5,557.4,405.5z"/>
				</g>
				<g>
					<path class="st0" d="M516.4,396.3c0.7,0,1.2,0.5,1.2,1.2l0,6.8c0,0.7-0.5,1.2-1.2,1.2l-3.5,0c-0.7,0-1.2-0.5-1.2-1.2l0-6.8
						c0-0.7,0.5-1.2,1.2-1.2L516.4,396.3z M516.4,404.3l0-6.8l-3.5,0l0,6.8L516.4,404.3z"/>
				</g>
				<g>
					<path class="st0" d="M532.9,396.3c0.7,0,1.2,0.5,1.2,1.2l0,6.8c0,0.7-0.5,1.2-1.2,1.2l-3.5,0c-0.7,0-1.2-0.5-1.2-1.2l0-6.8
						c0-0.7,0.5-1.2,1.2-1.2L532.9,396.3z M532.9,404.3l0-6.8l-3.5,0l0,6.8L532.9,404.3z"/>
				</g>
				<g>
					<path class="st0" d="M549.1,396.3c0.7,0,1.2,0.5,1.2,1.2l0,6.8c0,0.7-0.5,1.2-1.2,1.2l-3.5,0c-0.7,0-1.2-0.5-1.2-1.2l0-6.8
						c0-0.7,0.5-1.2,1.2-1.2L549.1,396.3z M549.1,404.3l0-6.8l-3.5,0l0,6.8L549.1,404.3z"/>
				</g>
				<g>
					<path class="st0" d="M509.3,381.1c0,0.4-0.3,0.6-0.6,0.6l-4.5,0c-0.3,0-0.6-0.2-0.6-0.6c0-0.4,0.3-0.6,0.6-0.6l1.7,0l0-6.7
						l-1.7,0c-0.3,0-0.6-0.2-0.6-0.6c0-0.4,0.3-0.6,0.6-0.6l2.9,0l0,7.8l1.1,0"/>
					<path class="st0" d="M508.8,381.7l-4.5,0c-0.3,0-0.6-0.3-0.6-0.6l0,0c0-0.3,0.3-0.6,0.6-0.6l4.5,0c0.3,0,0.6,0.3,0.6,0.6l0,0
						C509.3,381.4,509.1,381.7,508.8,381.7z"/>
				</g>
				<g>
					<path class="st0" d="M525.9,381.1c0,0.4-0.3,0.6-0.6,0.6l-4.5,0c-0.3,0-0.6-0.2-0.6-0.6c0-0.4,0.3-0.6,0.6-0.6l1.7,0l0-6.7
						l-1.7,0c-0.3,0-0.6-0.2-0.6-0.6s0.3-0.6,0.6-0.6l2.9,0l0,7.8l1.1,0"/>
					<path class="st0" d="M525.3,381.7l-4.5,0c-0.3,0-0.6-0.3-0.6-0.6l0,0c0-0.3,0.3-0.6,0.6-0.6l4.5,0c0.3,0,0.6,0.3,0.6,0.6l0,0
						C525.9,381.4,525.6,381.7,525.3,381.7z"/>
				</g>
				<g>
					<path class="st0" d="M542.3,381.1c0,0.4-0.3,0.6-0.6,0.6l-4.5,0c-0.3,0-0.6-0.2-0.6-0.6c0-0.4,0.3-0.6,0.6-0.6l1.7,0l0-6.7
						l-1.7,0c-0.3,0-0.6-0.2-0.6-0.6s0.3-0.6,0.6-0.6l2.9,0l0,7.8l1.1,0"/>
					<path class="st0" d="M541.8,381.7l-4.5,0c-0.3,0-0.6-0.3-0.6-0.6l0,0c0-0.3,0.3-0.6,0.6-0.6l4.5,0c0.3,0,0.6,0.3,0.6,0.6l0,0
						C542.3,381.4,542.1,381.7,541.8,381.7z"/>
				</g>
				<g>
					<path class="st0" d="M558,381.1c0,0.4-0.3,0.6-0.6,0.6l-4.5,0c-0.3,0-0.6-0.2-0.6-0.6c0-0.4,0.3-0.6,0.6-0.6l1.7,0l0-6.7
						l-1.7,0c-0.3,0-0.6-0.2-0.6-0.6s0.3-0.6,0.6-0.6l2.9,0l0,7.8l1.1,0"/>
					<path class="st0" d="M557.4,381.7l-4.5,0c-0.3,0-0.6-0.3-0.6-0.6l0,0c0-0.3,0.3-0.6,0.6-0.6l4.5,0c0.3,0,0.6,0.3,0.6,0.6l0,0
						C558,381.4,557.7,381.7,557.4,381.7z"/>
				</g>
				<g>
					<path class="st0" d="M516.4,372.5c0.7,0,1.2,0.5,1.2,1.2l0,6.8c0,0.7-0.5,1.2-1.2,1.2l-3.5,0c-0.7,0-1.2-0.5-1.2-1.2l0-6.8
						c0-0.7,0.5-1.2,1.2-1.2L516.4,372.5z M516.4,380.5l0-6.8l-3.5,0l0,6.8L516.4,380.5z"/>
				</g>
				<g>
					<path class="st0" d="M532.9,372.5c0.7,0,1.2,0.5,1.2,1.2l0,6.8c0,0.7-0.5,1.2-1.2,1.2l-3.5,0c-0.7,0-1.2-0.5-1.2-1.2l0-6.8
						c0-0.7,0.5-1.2,1.2-1.2L532.9,372.5z M532.9,380.5l0-6.8l-3.5,0l0,6.8L532.9,380.5z"/>
				</g>
				<g>
					<path class="st0" d="M549.1,372.5c0.7,0,1.2,0.5,1.2,1.2l0,6.8c0,0.7-0.5,1.2-1.2,1.2l-3.5,0c-0.7,0-1.2-0.5-1.2-1.2l0-6.8
						c0-0.7,0.5-1.2,1.2-1.2L549.1,372.5z M549.1,380.5l0-6.8l-3.5,0l0,6.8L549.1,380.5z"/>
				</g>
				<g>
					<path class="st0" d="M509.3,358.4c0,0.4-0.3,0.6-0.6,0.6l-4.5,0c-0.3,0-0.6-0.2-0.6-0.6c0-0.4,0.3-0.6,0.6-0.6l1.7,0l0-6.7
						l-1.7,0c-0.3,0-0.6-0.2-0.6-0.6c0-0.4,0.3-0.6,0.6-0.6l2.9,0l0,7.8l1.1,0"/>
					<path class="st0" d="M508.8,358.9l-4.5,0c-0.3,0-0.6-0.3-0.6-0.6l0,0c0-0.3,0.3-0.6,0.6-0.6l4.5,0c0.3,0,0.6,0.3,0.6,0.6l0,0
						C509.3,358.7,509.1,358.9,508.8,358.9z"/>
				</g>
				<g>
					<path class="st0" d="M525.9,358.4c0,0.4-0.3,0.6-0.6,0.6l-4.5,0c-0.3,0-0.6-0.2-0.6-0.6c0-0.4,0.3-0.6,0.6-0.6l1.7,0l0-6.7
						l-1.7,0c-0.3,0-0.6-0.2-0.6-0.6c0-0.4,0.3-0.6,0.6-0.6l2.9,0l0,7.8l1.1,0"/>
					<path class="st0" d="M525.3,358.9l-4.5,0c-0.3,0-0.6-0.3-0.6-0.6l0,0c0-0.3,0.3-0.6,0.6-0.6l4.5,0c0.3,0,0.6,0.3,0.6,0.6l0,0
						C525.9,358.7,525.6,358.9,525.3,358.9z"/>
				</g>
				<g>
					<path class="st0" d="M542.3,358.4c0,0.4-0.3,0.6-0.6,0.6l-4.5,0c-0.3,0-0.6-0.2-0.6-0.6c0-0.4,0.3-0.6,0.6-0.6l1.7,0l0-6.7
						l-1.7,0c-0.3,0-0.6-0.2-0.6-0.6c0-0.4,0.3-0.6,0.6-0.6l2.9,0l0,7.8l1.1,0"/>
					<path class="st0" d="M541.8,358.9l-4.5,0c-0.3,0-0.6-0.3-0.6-0.6l0,0c0-0.3,0.3-0.6,0.6-0.6l4.5,0c0.3,0,0.6,0.3,0.6,0.6l0,0
						C542.3,358.7,542.1,358.9,541.8,358.9z"/>
				</g>
				<g>
					<path class="st0" d="M558,358.4c0,0.4-0.3,0.6-0.6,0.6l-4.5,0c-0.3,0-0.6-0.2-0.6-0.6c0-0.4,0.3-0.6,0.6-0.6l1.7,0l0-6.7
						l-1.7,0c-0.3,0-0.6-0.2-0.6-0.6c0-0.4,0.3-0.6,0.6-0.6l2.9,0l0,7.8l1.1,0"/>
					<path class="st0" d="M557.4,358.9l-4.5,0c-0.3,0-0.6-0.3-0.6-0.6l0,0c0-0.3,0.3-0.6,0.6-0.6l4.5,0c0.3,0,0.6,0.3,0.6,0.6l0,0
						C558,358.7,557.7,358.9,557.4,358.9z"/>
				</g>
				<g>
					<path class="st0" d="M516.4,349.7c0.7,0,1.2,0.5,1.2,1.2l0,6.8c0,0.7-0.5,1.2-1.2,1.2l-3.5,0c-0.7,0-1.2-0.5-1.2-1.2l0-6.8
						c0-0.7,0.5-1.2,1.2-1.2L516.4,349.7z M516.4,357.7l0-6.8l-3.5,0l0,6.8L516.4,357.7z"/>
				</g>
				<g>
					<path class="st0" d="M532.9,349.7c0.7,0,1.2,0.5,1.2,1.2l0,6.8c0,0.7-0.5,1.2-1.2,1.2l-3.5,0c-0.7,0-1.2-0.5-1.2-1.2l0-6.8
						c0-0.7,0.5-1.2,1.2-1.2L532.9,349.7z M532.9,357.7l0-6.8l-3.5,0l0,6.8L532.9,357.7z"/>
				</g>
				<g>
					<path class="st0" d="M549.1,349.7c0.7,0,1.2,0.5,1.2,1.2l0,6.8c0,0.7-0.5,1.2-1.2,1.2l-3.5,0c-0.7,0-1.2-0.5-1.2-1.2l0-6.8
						c0-0.7,0.5-1.2,1.2-1.2L549.1,349.7z M549.1,357.7l0-6.8l-3.5,0l0,6.8L549.1,357.7z"/>
				</g>
				<g>
					<path class="st0" d="M509.3,336.1c0,0.4-0.3,0.6-0.6,0.6l-4.5,0c-0.3,0-0.6-0.2-0.6-0.6c0-0.4,0.3-0.6,0.6-0.6l1.7,0l0-6.7
						l-1.7,0c-0.3,0-0.6-0.2-0.6-0.6c0-0.4,0.3-0.6,0.6-0.6l2.9,0l0,7.8l1.1,0"/>
					<path class="st0" d="M508.8,336.7l-4.5,0c-0.3,0-0.6-0.3-0.6-0.6l0,0c0-0.3,0.3-0.6,0.6-0.6l4.5,0c0.3,0,0.6,0.3,0.6,0.6l0,0
						C509.3,336.4,509.1,336.7,508.8,336.7z"/>
				</g>
				<g>
					<path class="st0" d="M525.9,336.1c0,0.4-0.3,0.6-0.6,0.6l-4.5,0c-0.3,0-0.6-0.2-0.6-0.6c0-0.4,0.3-0.6,0.6-0.6l1.7,0l0-6.7
						l-1.7,0c-0.3,0-0.6-0.2-0.6-0.6s0.3-0.6,0.6-0.6l2.9,0l0,7.8l1.1,0"/>
					<path class="st0" d="M525.3,336.7l-4.5,0c-0.3,0-0.6-0.3-0.6-0.6l0,0c0-0.3,0.3-0.6,0.6-0.6l4.5,0c0.3,0,0.6,0.3,0.6,0.6l0,0
						C525.9,336.4,525.6,336.7,525.3,336.7z"/>
				</g>
				<g>
					<path class="st0" d="M542.3,336.1c0,0.4-0.3,0.6-0.6,0.6l-4.5,0c-0.3,0-0.6-0.2-0.6-0.6c0-0.4,0.3-0.6,0.6-0.6l1.7,0l0-6.7
						l-1.7,0c-0.3,0-0.6-0.2-0.6-0.6s0.3-0.6,0.6-0.6l2.9,0l0,7.8l1.1,0"/>
					<path class="st0" d="M541.8,336.7l-4.5,0c-0.3,0-0.6-0.3-0.6-0.6l0,0c0-0.3,0.3-0.6,0.6-0.6l4.5,0c0.3,0,0.6,0.3,0.6,0.6l0,0
						C542.3,336.4,542.1,336.7,541.8,336.7z"/>
				</g>
				<g>
					<path class="st0" d="M558,336.1c0,0.4-0.3,0.6-0.6,0.6l-4.5,0c-0.3,0-0.6-0.2-0.6-0.6c0-0.4,0.3-0.6,0.6-0.6l1.7,0l0-6.7
						l-1.7,0c-0.3,0-0.6-0.2-0.6-0.6s0.3-0.6,0.6-0.6l2.9,0l0,7.8l1.1,0"/>
					<path class="st0" d="M557.4,336.7l-4.5,0c-0.3,0-0.6-0.3-0.6-0.6l0,0c0-0.3,0.3-0.6,0.6-0.6l4.5,0c0.3,0,0.6,0.3,0.6,0.6l0,0
						C558,336.4,557.7,336.7,557.4,336.7z"/>
				</g>
				<g>
					<path class="st0" d="M516.4,327.5c0.7,0,1.2,0.5,1.2,1.2l0,6.8c0,0.7-0.5,1.2-1.2,1.2l-3.5,0c-0.7,0-1.2-0.5-1.2-1.2l0-6.8
						c0-0.7,0.5-1.2,1.2-1.2L516.4,327.5z M516.4,335.5l0-6.8l-3.5,0l0,6.8L516.4,335.5z"/>
				</g>
				<g>
					<path class="st0" d="M532.9,327.5c0.7,0,1.2,0.5,1.2,1.2l0,6.8c0,0.7-0.5,1.2-1.2,1.2l-3.5,0c-0.7,0-1.2-0.5-1.2-1.2l0-6.8
						c0-0.7,0.5-1.2,1.2-1.2L532.9,327.5z M532.9,335.5l0-6.8l-3.5,0l0,6.8L532.9,335.5z"/>
				</g>
				<g>
					<path class="st0" d="M549.1,327.5c0.7,0,1.2,0.5,1.2,1.2l0,6.8c0,0.7-0.5,1.2-1.2,1.2l-3.5,0c-0.7,0-1.2-0.5-1.2-1.2l0-6.8
						c0-0.7,0.5-1.2,1.2-1.2L549.1,327.5z M549.1,335.5l0-6.8l-3.5,0l0,6.8L549.1,335.5z"/>
				</g>
				<g>
					<path class="st0" d="M509.3,313c0,0.4-0.3,0.6-0.6,0.6l-4.5,0c-0.3,0-0.6-0.2-0.6-0.6c0-0.4,0.3-0.6,0.6-0.6l1.7,0l0-6.7
						l-1.7,0c-0.3,0-0.6-0.2-0.6-0.6c0-0.4,0.3-0.6,0.6-0.6l2.9,0l0,7.8l1.1,0"/>
					<path class="st0" d="M508.8,313.5l-4.5,0c-0.3,0-0.6-0.3-0.6-0.6l0,0c0-0.3,0.3-0.6,0.6-0.6l4.5,0c0.3,0,0.6,0.3,0.6,0.6l0,0
						C509.3,313.3,509.1,313.5,508.8,313.5z"/>
				</g>
				<g>
					<path class="st0" d="M525.9,313c0,0.4-0.3,0.6-0.6,0.6l-4.5,0c-0.3,0-0.6-0.2-0.6-0.6c0-0.4,0.3-0.6,0.6-0.6l1.7,0l0-6.7
						l-1.7,0c-0.3,0-0.6-0.2-0.6-0.6c0-0.4,0.3-0.6,0.6-0.6l2.9,0l0,7.8l1.1,0"/>
					<path class="st0" d="M525.3,313.5l-4.5,0c-0.3,0-0.6-0.3-0.6-0.6l0,0c0-0.3,0.3-0.6,0.6-0.6l4.5,0c0.3,0,0.6,0.3,0.6,0.6l0,0
						C525.9,313.3,525.6,313.5,525.3,313.5z"/>
				</g>
				<g>
					<path class="st0" d="M542.3,313c0,0.4-0.3,0.6-0.6,0.6l-4.5,0c-0.3,0-0.6-0.2-0.6-0.6c0-0.4,0.3-0.6,0.6-0.6l1.7,0l0-6.7
						l-1.7,0c-0.3,0-0.6-0.2-0.6-0.6c0-0.4,0.3-0.6,0.6-0.6l2.9,0l0,7.8l1.1,0"/>
					<path class="st0" d="M541.8,313.5l-4.5,0c-0.3,0-0.6-0.3-0.6-0.6l0,0c0-0.3,0.3-0.6,0.6-0.6l4.5,0c0.3,0,0.6,0.3,0.6,0.6l0,0
						C542.3,313.3,542.1,313.5,541.8,313.5z"/>
				</g>
				<g>
					<path class="st0" d="M558,313c0,0.4-0.3,0.6-0.6,0.6l-4.5,0c-0.3,0-0.6-0.2-0.6-0.6c0-0.4,0.3-0.6,0.6-0.6l1.7,0l0-6.7l-1.7,0
						c-0.3,0-0.6-0.2-0.6-0.6c0-0.4,0.3-0.6,0.6-0.6l2.9,0l0,7.8l1.1,0"/>
					<path class="st0" d="M557.4,313.5l-4.5,0c-0.3,0-0.6-0.3-0.6-0.6l0,0c0-0.3,0.3-0.6,0.6-0.6l4.5,0c0.3,0,0.6,0.3,0.6,0.6l0,0
						C558,313.3,557.7,313.5,557.4,313.5z"/>
				</g>
				<g>
					<path class="st0" d="M516.4,304.3c0.7,0,1.2,0.5,1.2,1.2l0,6.8c0,0.7-0.5,1.2-1.2,1.2l-3.5,0c-0.7,0-1.2-0.5-1.2-1.2l0-6.8
						c0-0.7,0.5-1.2,1.2-1.2L516.4,304.3z M516.4,312.3l0-6.8l-3.5,0l0,6.8L516.4,312.3z"/>
				</g>
				<g>
					<path class="st0" d="M532.9,304.3c0.7,0,1.2,0.5,1.2,1.2l0,6.8c0,0.7-0.5,1.2-1.2,1.2l-3.5,0c-0.7,0-1.2-0.5-1.2-1.2l0-6.8
						c0-0.7,0.5-1.2,1.2-1.2L532.9,304.3z M532.9,312.3l0-6.8l-3.5,0l0,6.8L532.9,312.3z"/>
				</g>
				<g>
					<path class="st0" d="M549.1,304.3c0.7,0,1.2,0.5,1.2,1.2l0,6.8c0,0.7-0.5,1.2-1.2,1.2l-3.5,0c-0.7,0-1.2-0.5-1.2-1.2l0-6.8
						c0-0.7,0.5-1.2,1.2-1.2L549.1,304.3z M549.1,312.3l0-6.8l-3.5,0l0,6.8L549.1,312.3z"/>
				</g>
				<g>
					<path class="st0" d="M517.4,393.1c0,0.4-0.3,0.6-0.6,0.6l-4.5,0c-0.3,0-0.6-0.2-0.6-0.6c0-0.4,0.3-0.6,0.6-0.6l1.7,0l0-6.7
						l-1.7,0c-0.3,0-0.6-0.2-0.6-0.6c0-0.4,0.3-0.6,0.6-0.6l2.9,0l0,7.8l1.1,0"/>
					<path class="st0" d="M516.9,393.7l-4.5,0c-0.3,0-0.6-0.3-0.6-0.6l0,0c0-0.3,0.3-0.6,0.6-0.6l4.5,0c0.3,0,0.6,0.3,0.6,0.6l0,0
						C517.4,393.4,517.2,393.7,516.9,393.7z"/>
				</g>
				<g>
					<path class="st0" d="M534,393.1c0,0.4-0.3,0.6-0.6,0.6l-4.5,0c-0.3,0-0.6-0.2-0.6-0.6c0-0.4,0.3-0.6,0.6-0.6l1.7,0l0-6.7
						l-1.7,0c-0.3,0-0.6-0.2-0.6-0.6c0-0.4,0.3-0.6,0.6-0.6l2.9,0l0,7.8l1.1,0"/>
					<path class="st0" d="M533.4,393.7l-4.5,0c-0.3,0-0.6-0.3-0.6-0.6l0,0c0-0.3,0.3-0.6,0.6-0.6l4.5,0c0.3,0,0.6,0.3,0.6,0.6l0,0
						C534,393.4,533.7,393.7,533.4,393.7z"/>
				</g>
				<g>
					<path class="st0" d="M550.4,393.1c0,0.4-0.3,0.6-0.6,0.6l-4.5,0c-0.3,0-0.6-0.2-0.6-0.6c0-0.4,0.3-0.6,0.6-0.6l1.7,0l0-6.7
						l-1.7,0c-0.3,0-0.6-0.2-0.6-0.6c0-0.4,0.3-0.6,0.6-0.6l2.9,0l0,7.8l1.1,0"/>
					<path class="st0" d="M549.9,393.7l-4.5,0c-0.3,0-0.6-0.3-0.6-0.6l0,0c0-0.3,0.3-0.6,0.6-0.6l4.5,0c0.3,0,0.6,0.3,0.6,0.6l0,0
						C550.4,393.4,550.2,393.7,549.9,393.7z"/>
				</g>
				<g>
					<path class="st0" d="M524.5,384.5c0.7,0,1.2,0.5,1.2,1.2l0,6.8c0,0.7-0.5,1.2-1.2,1.2l-3.5,0c-0.7,0-1.2-0.5-1.2-1.2l0-6.8
						c0-0.7,0.5-1.2,1.2-1.2L524.5,384.5z M524.5,392.5l0-6.8l-3.5,0l0,6.8L524.5,392.5z"/>
				</g>
				<g>
					<path class="st0" d="M541,384.5c0.7,0,1.2,0.5,1.2,1.2l0,6.8c0,0.7-0.5,1.2-1.2,1.2l-3.5,0c-0.7,0-1.2-0.5-1.2-1.2l0-6.8
						c0-0.7,0.5-1.2,1.2-1.2L541,384.5z M541,392.5l0-6.8l-3.5,0l0,6.8L541,392.5z"/>
				</g>
				<g>
					<path class="st0" d="M557.2,384.5c0.7,0,1.2,0.5,1.2,1.2l0,6.8c0,0.7-0.5,1.2-1.2,1.2l-3.5,0c-0.7,0-1.2-0.5-1.2-1.2l0-6.8
						c0-0.7,0.5-1.2,1.2-1.2L557.2,384.5z M557.2,392.5l0-6.8l-3.5,0l0,6.8L557.2,392.5z"/>
				</g>
				<g>
					<path class="st0" d="M508.3,384.5c0.7,0,1.2,0.5,1.2,1.2l0,6.8c0,0.7-0.5,1.2-1.2,1.2l-3.5,0c-0.7,0-1.2-0.5-1.2-1.2l0-6.8
						c0-0.7,0.5-1.2,1.2-1.2L508.3,384.5z M508.3,392.5l0-6.8l-3.5,0l0,6.8L508.3,392.5z"/>
				</g>
				<g>
					<path class="st0" d="M517.4,369.6c0,0.4-0.3,0.6-0.6,0.6l-4.5,0c-0.3,0-0.6-0.2-0.6-0.6c0-0.4,0.3-0.6,0.6-0.6l1.7,0l0-6.7
						l-1.7,0c-0.3,0-0.6-0.2-0.6-0.6c0-0.4,0.3-0.6,0.6-0.6l2.9,0l0,7.8l1.1,0"/>
					<path class="st0" d="M516.9,370.2l-4.5,0c-0.3,0-0.6-0.3-0.6-0.6l0,0c0-0.3,0.3-0.6,0.6-0.6l4.5,0c0.3,0,0.6,0.3,0.6,0.6l0,0
						C517.4,369.9,517.2,370.2,516.9,370.2z"/>
				</g>
				<g>
					<path class="st0" d="M534,369.6c0,0.4-0.3,0.6-0.6,0.6l-4.5,0c-0.3,0-0.6-0.2-0.6-0.6c0-0.4,0.3-0.6,0.6-0.6l1.7,0l0-6.7
						l-1.7,0c-0.3,0-0.6-0.2-0.6-0.6c0-0.4,0.3-0.6,0.6-0.6l2.9,0l0,7.8l1.1,0"/>
					<path class="st0" d="M533.4,370.2l-4.5,0c-0.3,0-0.6-0.3-0.6-0.6l0,0c0-0.3,0.3-0.6,0.6-0.6l4.5,0c0.3,0,0.6,0.3,0.6,0.6l0,0
						C534,369.9,533.7,370.2,533.4,370.2z"/>
				</g>
				<g>
					<path class="st0" d="M550.4,369.6c0,0.4-0.3,0.6-0.6,0.6l-4.5,0c-0.3,0-0.6-0.2-0.6-0.6c0-0.4,0.3-0.6,0.6-0.6l1.7,0l0-6.7
						l-1.7,0c-0.3,0-0.6-0.2-0.6-0.6c0-0.4,0.3-0.6,0.6-0.6l2.9,0l0,7.8l1.1,0"/>
					<path class="st0" d="M549.9,370.2l-4.5,0c-0.3,0-0.6-0.3-0.6-0.6l0,0c0-0.3,0.3-0.6,0.6-0.6l4.5,0c0.3,0,0.6,0.3,0.6,0.6l0,0
						C550.4,369.9,550.2,370.2,549.9,370.2z"/>
				</g>
				<g>
					<path class="st0" d="M524.5,361c0.7,0,1.2,0.5,1.2,1.2l0,6.8c0,0.7-0.5,1.2-1.2,1.2l-3.5,0c-0.7,0-1.2-0.5-1.2-1.2l0-6.8
						c0-0.7,0.5-1.2,1.2-1.2L524.5,361z M524.5,369l0-6.8l-3.5,0l0,6.8L524.5,369z"/>
				</g>
				<g>
					<path class="st0" d="M541,361c0.7,0,1.2,0.5,1.2,1.2l0,6.8c0,0.7-0.5,1.2-1.2,1.2l-3.5,0c-0.7,0-1.2-0.5-1.2-1.2l0-6.8
						c0-0.7,0.5-1.2,1.2-1.2L541,361z M541,369l0-6.8l-3.5,0l0,6.8L541,369z"/>
				</g>
				<g>
					<path class="st0" d="M557.2,361c0.7,0,1.2,0.5,1.2,1.2l0,6.8c0,0.7-0.5,1.2-1.2,1.2l-3.5,0c-0.7,0-1.2-0.5-1.2-1.2l0-6.8
						c0-0.7,0.5-1.2,1.2-1.2L557.2,361z M557.2,369l0-6.8l-3.5,0l0,6.8L557.2,369z"/>
				</g>
				<g>
					<path class="st0" d="M508.3,361c0.7,0,1.2,0.5,1.2,1.2l0,6.8c0,0.7-0.5,1.2-1.2,1.2l-3.5,0c-0.7,0-1.2-0.5-1.2-1.2l0-6.8
						c0-0.7,0.5-1.2,1.2-1.2L508.3,361z M508.3,369l0-6.8l-3.5,0l0,6.8L508.3,369z"/>
				</g>
				<g>
					<path class="st0" d="M517.4,347.4c0,0.4-0.3,0.6-0.6,0.6l-4.5,0c-0.3,0-0.6-0.2-0.6-0.6c0-0.4,0.3-0.6,0.6-0.6l1.7,0l0-6.7
						l-1.7,0c-0.3,0-0.6-0.2-0.6-0.6c0-0.4,0.3-0.6,0.6-0.6l2.9,0l0,7.8l1.1,0"/>
					<path class="st0" d="M516.9,347.9l-4.5,0c-0.3,0-0.6-0.3-0.6-0.6l0,0c0-0.3,0.3-0.6,0.6-0.6l4.5,0c0.3,0,0.6,0.3,0.6,0.6l0,0
						C517.4,347.7,517.2,347.9,516.9,347.9z"/>
				</g>
				<g>
					<path class="st0" d="M534,347.4c0,0.4-0.3,0.6-0.6,0.6l-4.5,0c-0.3,0-0.6-0.2-0.6-0.6c0-0.4,0.3-0.6,0.6-0.6l1.7,0l0-6.7
						l-1.7,0c-0.3,0-0.6-0.2-0.6-0.6c0-0.4,0.3-0.6,0.6-0.6l2.9,0l0,7.8l1.1,0"/>
					<path class="st0" d="M533.4,347.9l-4.5,0c-0.3,0-0.6-0.3-0.6-0.6l0,0c0-0.3,0.3-0.6,0.6-0.6l4.5,0c0.3,0,0.6,0.3,0.6,0.6l0,0
						C534,347.7,533.7,347.9,533.4,347.9z"/>
				</g>
				<g>
					<path class="st0" d="M550.4,347.4c0,0.4-0.3,0.6-0.6,0.6l-4.5,0c-0.3,0-0.6-0.2-0.6-0.6c0-0.4,0.3-0.6,0.6-0.6l1.7,0l0-6.7
						l-1.7,0c-0.3,0-0.6-0.2-0.6-0.6c0-0.4,0.3-0.6,0.6-0.6l2.9,0l0,7.8l1.1,0"/>
					<path class="st0" d="M549.9,347.9l-4.5,0c-0.3,0-0.6-0.3-0.6-0.6l0,0c0-0.3,0.3-0.6,0.6-0.6l4.5,0c0.3,0,0.6,0.3,0.6,0.6l0,0
						C550.4,347.7,550.2,347.9,549.9,347.9z"/>
				</g>
				<g>
					<path class="st0" d="M524.5,338.7c0.7,0,1.2,0.5,1.2,1.2l0,6.8c0,0.7-0.5,1.2-1.2,1.2l-3.5,0c-0.7,0-1.2-0.5-1.2-1.2l0-6.8
						c0-0.7,0.5-1.2,1.2-1.2L524.5,338.7z M524.5,346.7l0-6.8l-3.5,0l0,6.8L524.5,346.7z"/>
				</g>
				<g>
					<path class="st0" d="M541,338.7c0.7,0,1.2,0.5,1.2,1.2l0,6.8c0,0.7-0.5,1.2-1.2,1.2l-3.5,0c-0.7,0-1.2-0.5-1.2-1.2l0-6.8
						c0-0.7,0.5-1.2,1.2-1.2L541,338.7z M541,346.7l0-6.8l-3.5,0l0,6.8L541,346.7z"/>
				</g>
				<g>
					<path class="st0" d="M557.2,338.7c0.7,0,1.2,0.5,1.2,1.2l0,6.8c0,0.7-0.5,1.2-1.2,1.2l-3.5,0c-0.7,0-1.2-0.5-1.2-1.2l0-6.8
						c0-0.7,0.5-1.2,1.2-1.2L557.2,338.7z M557.2,346.7l0-6.8l-3.5,0l0,6.8L557.2,346.7z"/>
				</g>
				<g>
					<path class="st0" d="M508.3,338.7c0.7,0,1.2,0.5,1.2,1.2l0,6.8c0,0.7-0.5,1.2-1.2,1.2l-3.5,0c-0.7,0-1.2-0.5-1.2-1.2l0-6.8
						c0-0.7,0.5-1.2,1.2-1.2L508.3,338.7z M508.3,346.7l0-6.8l-3.5,0l0,6.8L508.3,346.7z"/>
				</g>
				<g>
					<path class="st0" d="M517.4,324.7c0,0.4-0.3,0.6-0.6,0.6l-4.5,0c-0.3,0-0.6-0.2-0.6-0.6c0-0.4,0.3-0.6,0.6-0.6l1.7,0l0-6.7
						l-1.7,0c-0.3,0-0.6-0.2-0.6-0.6c0-0.4,0.3-0.6,0.6-0.6l2.9,0l0,7.8l1.1,0"/>
					<path class="st0" d="M516.9,325.2l-4.5,0c-0.3,0-0.6-0.3-0.6-0.6l0,0c0-0.3,0.3-0.6,0.6-0.6l4.5,0c0.3,0,0.6,0.3,0.6,0.6l0,0
						C517.4,325,517.2,325.2,516.9,325.2z"/>
				</g>
				<g>
					<path class="st0" d="M534,324.7c0,0.4-0.3,0.6-0.6,0.6l-4.5,0c-0.3,0-0.6-0.2-0.6-0.6c0-0.4,0.3-0.6,0.6-0.6l1.7,0l0-6.7
						l-1.7,0c-0.3,0-0.6-0.2-0.6-0.6c0-0.4,0.3-0.6,0.6-0.6l2.9,0l0,7.8l1.1,0"/>
					<path class="st0" d="M533.4,325.2l-4.5,0c-0.3,0-0.6-0.3-0.6-0.6l0,0c0-0.3,0.3-0.6,0.6-0.6l4.5,0c0.3,0,0.6,0.3,0.6,0.6l0,0
						C534,325,533.7,325.2,533.4,325.2z"/>
				</g>
				<g>
					<path class="st0" d="M550.4,324.7c0,0.4-0.3,0.6-0.6,0.6l-4.5,0c-0.3,0-0.6-0.2-0.6-0.6c0-0.4,0.3-0.6,0.6-0.6l1.7,0l0-6.7
						l-1.7,0c-0.3,0-0.6-0.2-0.6-0.6c0-0.4,0.3-0.6,0.6-0.6l2.9,0l0,7.8l1.1,0"/>
					<path class="st0" d="M549.9,325.2l-4.5,0c-0.3,0-0.6-0.3-0.6-0.6l0,0c0-0.3,0.3-0.6,0.6-0.6l4.5,0c0.3,0,0.6,0.3,0.6,0.6l0,0
						C550.4,325,550.2,325.2,549.9,325.2z"/>
				</g>
				<g>
					<path class="st0" d="M524.5,316c0.7,0,1.2,0.5,1.2,1.2l0,6.8c0,0.7-0.5,1.2-1.2,1.2l-3.5,0c-0.7,0-1.2-0.5-1.2-1.2l0-6.8
						c0-0.7,0.5-1.2,1.2-1.2L524.5,316z M524.5,324l0-6.8l-3.5,0l0,6.8L524.5,324z"/>
				</g>
				<g>
					<path class="st0" d="M541,316c0.7,0,1.2,0.5,1.2,1.2l0,6.8c0,0.7-0.5,1.2-1.2,1.2l-3.5,0c-0.7,0-1.2-0.5-1.2-1.2l0-6.8
						c0-0.7,0.5-1.2,1.2-1.2L541,316z M541,324l0-6.8l-3.5,0l0,6.8L541,324z"/>
				</g>
				<g>
					<path class="st0" d="M557.2,316c0.7,0,1.2,0.5,1.2,1.2l0,6.8c0,0.7-0.5,1.2-1.2,1.2l-3.5,0c-0.7,0-1.2-0.5-1.2-1.2l0-6.8
						c0-0.7,0.5-1.2,1.2-1.2L557.2,316z M557.2,324l0-6.8l-3.5,0l0,6.8L557.2,324z"/>
				</g>
				<g>
					<path class="st0" d="M508.3,316c0.7,0,1.2,0.5,1.2,1.2l0,6.8c0,0.7-0.5,1.2-1.2,1.2l-3.5,0c-0.7,0-1.2-0.5-1.2-1.2l0-6.8
						c0-0.7,0.5-1.2,1.2-1.2L508.3,316z M508.3,324l0-6.8l-3.5,0l0,6.8L508.3,324z"/>
				</g>
			</g>
			<g>
				<path class="st11" d="M553,397.2c2.1-7,6.3-13.2,11.8-18.1c10.4-8.7,17.1-21.9,17.1-36.6c0-27.2-22.6-49.4-50.5-48
					c-24.7,1-44.9,21.9-45.6,46.6c-0.3,15.3,6.3,28.9,17.1,37.9c5.9,4.9,10.1,11.1,12.2,18.1H553L553,397.2z"/>
				<path class="st5" d="M529.3,397.9h3.1L518.5,346c0.3,0,0.7,0,1,0c1.7,0,3.5-0.7,4.9-2.1c0.7-0.7,1.4-1,2.4-1s1.7,0.3,2.4,1
					c2.4,2.8,6.6,2.8,9.1,0c0.7-0.7,1.4-1,2.4-1c0.7,0,1.7,0.3,2.4,1c1.4,1.4,2.8,2.1,4.9,2.1c0.3,0,0.7,0,1,0l-13.6,51.9h3.1
					l14.3-54.3c0-0.7,0-1.4-0.7-1.7c-0.7-0.3-1.4,0-1.7,0.3c-0.7,0.7-1.4,1-2.1,1c-1,0-1.7-0.3-2.8-1c-1.4-1.4-2.8-2.1-4.5-2.1
					c-1.7,0-3.1,0.7-4.5,2.1c-1.4,1.4-3.5,1.4-4.9,0c-1-1.4-2.8-2.1-4.5-2.1l0,0c-1.7,0-3.5,0.7-4.5,2.1c-0.7,0.7-1.7,1-2.8,1
					c-0.7,0-1.7-0.3-2.1-1c-0.3-0.3-1-0.7-1.7-0.3c-0.7,0.3-1,1-0.7,1.7L529.3,397.9z"/>
				<g>
					<path class="st12" d="M523,429.2c1.7,4.2,5.9,7.3,10.8,7.3s9.1-3.1,10.8-7.3H523z"/>
					<path class="st12" d="M546.7,429.6h-25.4c-3.5,0-6.3-2.8-6.3-6.3v-26.5H553v26.5C553,426.8,550.2,429.6,546.7,429.6z"/>
				</g>
				<g>
					<path class="st13" d="M552.6,410.1H515c-2.1,0-3.8-1.7-3.8-3.8l0,0c0-2.1,1.7-3.8,3.8-3.8h37.6c2.1,0,3.8,1.7,3.8,3.8l0,0
						C556.5,408.3,554.7,410.1,552.6,410.1z"/>
					<path class="st13" d="M552.6,422.2H515c-2.1,0-3.8-1.7-3.8-3.8l0,0c0-2.1,1.7-3.8,3.8-3.8h37.6c2.1,0,3.8,1.7,3.8,3.8l0,0
						C556.5,420.5,554.7,422.2,552.6,422.2z"/>
				</g>
			</g>
			<g class="st14">
				<path class="st15" d="M575.9,428.2l-2.8-0.8c-0.1,0-0.2-0.1-0.1-0.3l2.6-9.2c0-0.1,0.1-0.2,0.3-0.1l2.8,0.8
					c0.1,0,0.2,0.1,0.1,0.3l-2.6,9.2C576.1,428.2,576,428.3,575.9,428.2L575.9,428.2z M575.9,428.2"/>
				<path class="st16" d="M580.4,419.1c-0.5,1.8-2.3,2.8-4.1,2.3c-1.8-0.5-2.8-2.3-2.3-4.1c0.5-1.8,2.3-2.8,4.1-2.3
					C579.9,415.5,580.9,417.4,580.4,419.1L580.4,419.1z M580.4,419.1"/>
				<path class="st15" d="M575.6,417.8c0.4-1.5,1.8-2.4,3.3-2.4c-0.2-0.1-0.5-0.3-0.8-0.3c-1.8-0.5-3.6,0.5-4.1,2.3
					c-0.5,1.8,0.5,3.6,2.3,4.1c0.3,0.1,0.6,0.1,0.8,0.1C575.8,420.8,575.2,419.3,575.6,417.8L575.6,417.8z M575.6,417.8"/>
				<path class="st15" d="M607.9,437.4l-2.8-0.8c-0.1,0-0.2-0.1-0.1-0.3l2.6-9.2c0-0.1,0.1-0.2,0.3-0.1l2.8,0.8
					c0.1,0,0.2,0.1,0.1,0.3l-2.6,9.2C608.2,437.3,608.1,437.4,607.9,437.4L607.9,437.4z M607.9,437.4"/>
				<path class="st16" d="M612.5,428.2c-0.5,1.8-2.3,2.8-4.1,2.3c-1.8-0.5-2.8-2.3-2.3-4.1s2.3-2.8,4.1-2.3
					C612,424.6,613,426.5,612.5,428.2L612.5,428.2z M612.5,428.2"/>
				<path class="st15" d="M607.7,426.9c0.4-1.5,1.8-2.4,3.3-2.4c-0.2-0.1-0.5-0.3-0.8-0.3c-1.8-0.5-3.6,0.5-4.1,2.3s0.5,3.6,2.3,4.1
					c0.3,0.1,0.6,0.1,0.8,0.1C607.9,429.9,607.3,428.4,607.7,426.9L607.7,426.9z M607.7,426.9"/>
				<path class="st16" d="M599.7,473.1l-38.5-10.9c-3.5-1-5.6-4.7-4.6-8.2l7.3-25.7c1-3.5,4.7-5.6,8.2-4.6l38.5,10.9
					c3.5,1,5.6,4.7,4.6,8.2l-7.3,25.7C607,472.1,603.3,474.2,599.7,473.1L599.7,473.1z M599.7,473.1"/>
				<path class="st17" d="M582.8,459.7c-9.5-2.7-17.7-7.5-23.9-13.3l-2.2,7.6c-1,3.5,1.1,7.2,4.6,8.2l38.5,10.9
					c3.5,1,7.2-1.1,8.2-4.6l2.2-7.6C601.8,462.6,592.3,462.4,582.8,459.7L582.8,459.7z M582.8,459.7"/>
				<path class="st18" d="M574.6,448.7c-1.3-0.4-2.1-1.8-1.7-3.1l0.5-1.6c0.4-1.3,1.8-2.1,3.1-1.7c1.3,0.4,2.1,1.8,1.7,3.1l-0.5,1.6
					C577.3,448.3,576,449.1,574.6,448.7L574.6,448.7z M574.6,448.7"/>
				<path class="st18" d="M595.5,454.6c-1.3-0.4-2.1-1.8-1.7-3.1l0.5-1.6c0.4-1.3,1.8-2.1,3.1-1.7c1.3,0.4,2.1,1.8,1.7,3.1l-0.5,1.6
					C598.2,454.2,596.8,455,595.5,454.6L595.5,454.6z M595.5,454.6"/>
				<path class="st15" d="M582.8,459.7c-9.5-2.7-17.7-7.5-23.9-13.3l-0.8,2.8c6.2,5.9,14.4,10.6,23.9,13.3c9.5,2.7,19,3,27.4,1.2
					l0.8-2.8C601.8,462.6,592.3,462.4,582.8,459.7L582.8,459.7z M582.8,459.7"/>
				<path class="st15" d="M567.1,429.2l-3.6,12.8c-0.3,0.9,0.3,1.8,1.1,2.1l1.6,0.5c0.9,0.3,1.8-0.3,2.1-1.1l0.1-0.5
					c1.1-3.8,4.8-6.4,8.6-5.6c4.4,0.8,7.1,5.2,5.9,9.4l-0.2,0.8c-0.3,0.9,0.3,1.8,1.1,2.1l3.2,0.9c0.9,0.3,1.8-0.3,2.1-1.1l0.1-0.5
					c1.1-3.8,4.8-6.4,8.6-5.6c4.4,0.8,7.1,5.2,5.9,9.4l-0.2,0.8c-0.3,0.9,0.3,1.8,1.1,2.1l1.6,0.5c0.9,0.3,1.8-0.3,2.1-1.1l3.6-12.8
					c0.5-1.8-0.5-3.6-2.3-4.1l-38.5-10.9C569.5,426.4,567.7,427.5,567.1,429.2L567.1,429.2z M567.1,429.2"/>
				<path class="st15" d="M556.9,447.1l-1.6-0.5c-0.9-0.3-1.4-1.2-1.1-2.1l1.8-6.4c0.3-0.9,1.2-1.4,2.1-1.1l1.6,0.5
					c0.9,0.3,1.4,1.2,1.1,2.1l-1.8,6.4C558.7,446.8,557.8,447.4,556.9,447.1L556.9,447.1z M556.9,447.1"/>
				<path class="st15" d="M558.2,442.3l-1.6-0.5c-0.9-0.3-1.4-1.2-1.1-2.1l0.5-1.6c0.3-0.9,1.2-1.4,2.1-1.1l1.6,0.5
					c0.9,0.3,1.4,1.2,1.1,2.1l-0.5,1.6C560,442,559.1,442.6,558.2,442.3L558.2,442.3z M558.2,442.3"/>
				<path class="st15" d="M613,463l-1.6-0.5c-0.9-0.3-1.4-1.2-1.1-2.1l1.8-6.4c0.3-0.9,1.2-1.4,2.1-1.1l1.6,0.5
					c0.9,0.3,1.4,1.2,1.1,2.1l-1.8,6.4C614.8,462.8,613.9,463.3,613,463L613,463z M613,463"/>
				<path class="st15" d="M614.4,458.2l-1.6-0.5c-0.9-0.3-1.4-1.2-1.1-2.1l0.5-1.6c0.3-0.9,1.2-1.4,2.1-1.1l1.6,0.5
					c0.9,0.3,1.4,1.2,1.1,2.1l-0.5,1.6C616.2,458,615.3,458.5,614.4,458.2L614.4,458.2z M614.4,458.2"/>
			</g>
			<path class="st19" d="M431.8,518.2c58.8-0.2,192.9-47.2,191.5-123.7c0,0,12.1,11,16.8,26.9c3.9,13.5,6.9,36.7,3.7,43.2
				s-31,68-141,74C502.7,538.7,425.5,538.2,431.8,518.2z"/>
			<path class="st19" d="M469,373.9c0,0-2.5,21,7.4,31.3c0,0,107.3-22.2,130.3-73.5c7.5-16.8-15.4-29.8-18.7-32.1
				C584.7,297.2,565,337.9,469,373.9z"/>
			<path class="st10" d="M574.5,366.3c0,0,50.5-29.7,42.6-75.7c-5.5-31.7-31.8-27.2-78.8-48.7s-35.7-94.7-35.7-94.7s-22,30-10,67.5
				s38.8,55.6,58.8,64.2c9.5,4,25.1,10,33,24.7C603.4,339.3,574.5,366.3,574.5,366.3z"/>
			<path class="st19" d="M551.3,278.9c-40.3-22.1-41.6-38.5-48.3-63.3c-5.4-20.1-5.7-46.3-0.5-68.3c2.8-12-19.8,26.8-11.6,61.6
				C500.2,248.8,530.6,270.4,551.3,278.9z"/>
		</g>
		<path class="st8" d="M430.3,533.5c0,0,89.5,23.2,148.1-4c44.9-20.8,60.6-35.3,58.2-71.1c-1.2-17.3-4.9-31.3-8.5-37.4
			c-7.3,30.9-39.8,27.9-77.7,52.5c-77,50.2-104.5,40.3-117.2,41.7C423.5,516.2,430.3,533.5,430.3,533.5z"/>
		<path class="st8" d="M761.5,824.5c0,70.7-361.5,49.2-412,14.7c-1-40.2,9.2-62.6,137.6-93.3c0,0,89.2,25.1,136.1-21.1
			C771.5,755.2,757.5,794.8,761.5,824.5z"/>
		<polygon class="st8" points="560.7,550 560.3,557 613.1,548.9 610.3,544.9 		"/>
		<polygon class="st8" points="522,555.8 523.7,562.4 470.5,566.4 472.4,561.8 		"/>
	</g>
	<polygon class="st6" points="446.1,468.1 433.3,468.2 491,449.8 503.6,449.8 	"/>
	
		<ellipse transform="matrix(0.2269 -0.9739 0.9739 0.2269 -231.7486 965.2171)" class="st20" cx="492.1" cy="628.6" rx="10.7" ry="15.7"/>
	
		<ellipse transform="matrix(0.8969 -0.4422 0.4422 0.8969 -206.4506 330.1707)" class="st20" cx="605" cy="607.9" rx="15.7" ry="10.7"/>
</g>
</svg>
